<?xml version="1.0" encoding="utf-8"?>
<!-- Generator: Adobe Illustrator 16.0.0, SVG Export Plug-In . SVG Version: 6.00 Build 0)  -->
<!DOCTYPE svg PUBLIC "-//W3C//DTD SVG 1.1//EN" "http://www.w3.org/Graphics/SVG/1.1/DTD/svg11.dtd">
<svg version="1.1" id="Calque_1" xmlns="http://www.w3.org/2000/svg" xmlns:xlink="http://www.w3.org/1999/xlink" x="0px" y="0px"
	 width="80px" height="80px" viewBox="0 0 80 80" enable-background="new 0 0 80 80" xml:space="preserve">
<g>
	<g>
		<g>
			
				<linearGradient id="SVGID_1_" gradientUnits="userSpaceOnUse" x1="-25.9751" y1="-663.7422" x2="-23.9375" y2="-663.7422" gradientTransform="matrix(1 0 0 -1 75.6597 -633.4004)">
				<stop  offset="0" style="stop-color:#F7F8A6"/>
				<stop  offset="0.073" style="stop-color:#F7CA33"/>
				<stop  offset="0.0965" style="stop-color:#F7CD3B"/>
				<stop  offset="0.1335" style="stop-color:#F7D751"/>
				<stop  offset="0.1793" style="stop-color:#F7E676"/>
				<stop  offset="0.2247" style="stop-color:#F7F8A6"/>
				<stop  offset="0.3202" style="stop-color:#F6D868"/>
				<stop  offset="0.4045" style="stop-color:#CFAE41"/>
				<stop  offset="0.4647" style="stop-color:#D8B43E"/>
				<stop  offset="0.5573" style="stop-color:#F2C635"/>
				<stop  offset="0.573" style="stop-color:#F7CA33"/>
				<stop  offset="0.9157" style="stop-color:#DEB430"/>
				<stop  offset="1" style="stop-color:#F7CA33"/>
			</linearGradient>
			<polyline fill="none" stroke="url(#SVGID_1_)" stroke-width="0.199" stroke-miterlimit="10" points="49.685,32.089 
				51.597,32.087 50.751,28.518 			"/>
			
				<linearGradient id="SVGID_2_" gradientUnits="userSpaceOnUse" x1="-30.0044" y1="-650.0283" x2="-25.0747" y2="-650.0283" gradientTransform="matrix(1 0 0 -1 75.6597 -633.4004)">
				<stop  offset="0" style="stop-color:#F7F8A6"/>
				<stop  offset="0.073" style="stop-color:#F7CA33"/>
				<stop  offset="0.0965" style="stop-color:#F7CD3B"/>
				<stop  offset="0.1335" style="stop-color:#F7D751"/>
				<stop  offset="0.1793" style="stop-color:#F7E676"/>
				<stop  offset="0.2247" style="stop-color:#F7F8A6"/>
				<stop  offset="0.3202" style="stop-color:#F6D868"/>
				<stop  offset="0.4045" style="stop-color:#CFAE41"/>
				<stop  offset="0.4647" style="stop-color:#D8B43E"/>
				<stop  offset="0.5573" style="stop-color:#F2C635"/>
				<stop  offset="0.573" style="stop-color:#F7CA33"/>
				<stop  offset="0.9157" style="stop-color:#DEB430"/>
				<stop  offset="1" style="stop-color:#F7CA33"/>
			</linearGradient>
			<polyline fill="none" stroke="url(#SVGID_2_)" stroke-width="0.199" stroke-miterlimit="10" points="50.487,27.257 46.17,6.569 
				45.754,9.699 			"/>
		</g>
		
			<linearGradient id="SVGID_3_" gradientUnits="userSpaceOnUse" x1="-26.8423" y1="-660.52" x2="-26.8423" y2="-660.52" gradientTransform="matrix(1 0 0 -1 75.6597 -633.4004)">
			<stop  offset="0" style="stop-color:#F7F8A6"/>
			<stop  offset="0.073" style="stop-color:#F7CA33"/>
			<stop  offset="0.0965" style="stop-color:#F7CD3B"/>
			<stop  offset="0.1335" style="stop-color:#F7D751"/>
			<stop  offset="0.1793" style="stop-color:#F7E676"/>
			<stop  offset="0.2247" style="stop-color:#F7F8A6"/>
			<stop  offset="0.3202" style="stop-color:#F6D868"/>
			<stop  offset="0.4045" style="stop-color:#CFAE41"/>
			<stop  offset="0.4647" style="stop-color:#D8B43E"/>
			<stop  offset="0.5573" style="stop-color:#F2C635"/>
			<stop  offset="0.573" style="stop-color:#F7CA33"/>
			<stop  offset="0.9157" style="stop-color:#DEB430"/>
			<stop  offset="1" style="stop-color:#F7CA33"/>
		</linearGradient>
		<path fill="url(#SVGID_3_)" d="M48.817,27.12"/>
		
			<linearGradient id="SVGID_4_" gradientUnits="userSpaceOnUse" x1="-26.604" y1="-661.7612" x2="-26.604" y2="-661.7612" gradientTransform="matrix(1 0 0 -1 75.6597 -633.4004)">
			<stop  offset="0" style="stop-color:#F7F8A6"/>
			<stop  offset="0.073" style="stop-color:#F7CA33"/>
			<stop  offset="0.0965" style="stop-color:#F7CD3B"/>
			<stop  offset="0.1335" style="stop-color:#F7D751"/>
			<stop  offset="0.1793" style="stop-color:#F7E676"/>
			<stop  offset="0.2247" style="stop-color:#F7F8A6"/>
			<stop  offset="0.3202" style="stop-color:#F6D868"/>
			<stop  offset="0.4045" style="stop-color:#CFAE41"/>
			<stop  offset="0.4647" style="stop-color:#D8B43E"/>
			<stop  offset="0.5573" style="stop-color:#F2C635"/>
			<stop  offset="0.573" style="stop-color:#F7CA33"/>
			<stop  offset="0.9157" style="stop-color:#DEB430"/>
			<stop  offset="1" style="stop-color:#F7CA33"/>
		</linearGradient>
		<path fill="url(#SVGID_4_)" d="M49.056,28.361"/>
		
			<linearGradient id="SVGID_5_" gradientUnits="userSpaceOnUse" x1="-33.5288" y1="-651.4697" x2="-26.5181" y2="-651.4697" gradientTransform="matrix(1 0 0 -1 75.6597 -633.4004)">
			<stop  offset="0" style="stop-color:#F7F8A6"/>
			<stop  offset="0.073" style="stop-color:#F7CA33"/>
			<stop  offset="0.0965" style="stop-color:#F7CD3B"/>
			<stop  offset="0.1335" style="stop-color:#F7D751"/>
			<stop  offset="0.1793" style="stop-color:#F7E676"/>
			<stop  offset="0.2247" style="stop-color:#F7F8A6"/>
			<stop  offset="0.3202" style="stop-color:#F6D868"/>
			<stop  offset="0.4045" style="stop-color:#CFAE41"/>
			<stop  offset="0.4647" style="stop-color:#D8B43E"/>
			<stop  offset="0.5573" style="stop-color:#F2C635"/>
			<stop  offset="0.573" style="stop-color:#F7CA33"/>
			<stop  offset="0.9157" style="stop-color:#DEB430"/>
			<stop  offset="1" style="stop-color:#F7CA33"/>
		</linearGradient>
		<polygon fill="url(#SVGID_5_)" points="49.142,27.12 45.811,9.003 42.131,27.135 		"/>
		
			<linearGradient id="SVGID_6_" gradientUnits="userSpaceOnUse" x1="-49.4712" y1="-672.6123" x2="-30.4937" y2="-672.6123" gradientTransform="matrix(1 0 0 -1 75.6597 -633.4004)">
			<stop  offset="0" style="stop-color:#F7F8A6"/>
			<stop  offset="0.073" style="stop-color:#F7CA33"/>
			<stop  offset="0.0965" style="stop-color:#F7CD3B"/>
			<stop  offset="0.1335" style="stop-color:#F7D751"/>
			<stop  offset="0.1793" style="stop-color:#F7E676"/>
			<stop  offset="0.2247" style="stop-color:#F7F8A6"/>
			<stop  offset="0.3202" style="stop-color:#F6D868"/>
			<stop  offset="0.4045" style="stop-color:#CFAE41"/>
			<stop  offset="0.4647" style="stop-color:#D8B43E"/>
			<stop  offset="0.5573" style="stop-color:#F2C635"/>
			<stop  offset="0.573" style="stop-color:#F7CA33"/>
			<stop  offset="0.9157" style="stop-color:#DEB430"/>
			<stop  offset="1" style="stop-color:#F7CA33"/>
		</linearGradient>
		<polygon fill="url(#SVGID_6_)" points="45.166,8.292 26.188,70.131 32.43,70.131 		"/>
		
			<linearGradient id="SVGID_7_" gradientUnits="userSpaceOnUse" x1="-46.2754" y1="-659.0938" x2="-33.7729" y2="-659.0938" gradientTransform="matrix(1 0 0 -1 75.6597 -633.4004)">
			<stop  offset="0" style="stop-color:#F7F8A6"/>
			<stop  offset="0.073" style="stop-color:#F7CA33"/>
			<stop  offset="0.0965" style="stop-color:#F7CD3B"/>
			<stop  offset="0.1335" style="stop-color:#F7D751"/>
			<stop  offset="0.1793" style="stop-color:#F7E676"/>
			<stop  offset="0.2247" style="stop-color:#F7F8A6"/>
			<stop  offset="0.3202" style="stop-color:#F6D868"/>
			<stop  offset="0.4045" style="stop-color:#CFAE41"/>
			<stop  offset="0.4647" style="stop-color:#D8B43E"/>
			<stop  offset="0.5573" style="stop-color:#F2C635"/>
			<stop  offset="0.573" style="stop-color:#F7CA33"/>
			<stop  offset="0.9157" style="stop-color:#DEB430"/>
			<stop  offset="1" style="stop-color:#F7CA33"/>
		</linearGradient>
		<path fill="url(#SVGID_7_)" d="M33.866,27.886c-1.169,0.117-1.659,0.171-2.76,0.475l-1.722,5.578
			c2.302-1.061,4.651-1.599,8.001-1.821l1.476-4.529c-2.213,0-3.846-1.813-3.846-3.853s1.795-3.69,4.008-3.69
			c0.554,0,1.568,0.102,2.049,0.288l0.814-2.399c-0.777-0.313-1.959-0.487-2.858-0.487c-3.597,0-6.677,2.773-6.677,6.196
			c0,1.531,0.911,3.095,1.88,4.177L33.866,27.886z"/>
		
			<linearGradient id="SVGID_8_" gradientUnits="userSpaceOnUse" x1="-59.5894" y1="-679.9971" x2="-44.9897" y2="-679.9971" gradientTransform="matrix(1 0 0 -1 75.6597 -633.4004)">
			<stop  offset="0" style="stop-color:#F7F8A6"/>
			<stop  offset="0.073" style="stop-color:#F7CA33"/>
			<stop  offset="0.0965" style="stop-color:#F7CD3B"/>
			<stop  offset="0.1335" style="stop-color:#F7D751"/>
			<stop  offset="0.1793" style="stop-color:#F7E676"/>
			<stop  offset="0.2247" style="stop-color:#F7F8A6"/>
			<stop  offset="0.3202" style="stop-color:#F6D868"/>
			<stop  offset="0.4045" style="stop-color:#CFAE41"/>
			<stop  offset="0.4647" style="stop-color:#D8B43E"/>
			<stop  offset="0.5573" style="stop-color:#F2C635"/>
			<stop  offset="0.573" style="stop-color:#F7CA33"/>
			<stop  offset="0.9157" style="stop-color:#DEB430"/>
			<stop  offset="1" style="stop-color:#F7CA33"/>
		</linearGradient>
		<path fill="url(#SVGID_8_)" d="M27.335,64.785C20.66,61.573,16.07,54.888,16.07,47.153c0-8.788,6.417-16.226,14.6-18.746
			l-1.881,5.874c-4.759,2.671-7.926,7.42-7.926,12.833c0,5.42,3.174,10.173,7.943,12.841L27.335,64.785z"/>
		
			<linearGradient id="SVGID_9_" gradientUnits="userSpaceOnUse" x1="-34.48" y1="-663.6367" x2="-25.3647" y2="-663.6367" gradientTransform="matrix(1 0 0 -1 75.6597 -633.4004)">
			<stop  offset="0" style="stop-color:#F7F8A6"/>
			<stop  offset="0.073" style="stop-color:#F7CA33"/>
			<stop  offset="0.0965" style="stop-color:#F7CD3B"/>
			<stop  offset="0.1335" style="stop-color:#F7D751"/>
			<stop  offset="0.1793" style="stop-color:#F7E676"/>
			<stop  offset="0.2247" style="stop-color:#F7F8A6"/>
			<stop  offset="0.3202" style="stop-color:#F6D868"/>
			<stop  offset="0.4045" style="stop-color:#CFAE41"/>
			<stop  offset="0.4647" style="stop-color:#D8B43E"/>
			<stop  offset="0.5573" style="stop-color:#F2C635"/>
			<stop  offset="0.573" style="stop-color:#F7CA33"/>
			<stop  offset="0.9157" style="stop-color:#DEB430"/>
			<stop  offset="1" style="stop-color:#F7CA33"/>
		</linearGradient>
		<polyline fill="url(#SVGID_9_)" points="41.819,28.383 41.18,32.089 50.295,32.087 49.524,28.46 		"/>
	</g>
	<g>
		
			<linearGradient id="SVGID_10_" gradientUnits="userSpaceOnUse" x1="-23.8442" y1="-663.6465" x2="-22.7856" y2="-663.6465" gradientTransform="matrix(1 0 0 -1 75.6597 -633.4004)">
			<stop  offset="0" style="stop-color:#F7F8A6"/>
			<stop  offset="0.073" style="stop-color:#F7CA33"/>
			<stop  offset="0.0965" style="stop-color:#F7CD3B"/>
			<stop  offset="0.1335" style="stop-color:#F7D751"/>
			<stop  offset="0.1793" style="stop-color:#F7E676"/>
			<stop  offset="0.2247" style="stop-color:#F7F8A6"/>
			<stop  offset="0.3202" style="stop-color:#F6D868"/>
			<stop  offset="0.4045" style="stop-color:#CFAE41"/>
			<stop  offset="0.4647" style="stop-color:#D8B43E"/>
			<stop  offset="0.5573" style="stop-color:#F2C635"/>
			<stop  offset="0.573" style="stop-color:#F7CA33"/>
			<stop  offset="0.9157" style="stop-color:#DEB430"/>
			<stop  offset="1" style="stop-color:#F7CA33"/>
		</linearGradient>
		<polyline fill="url(#SVGID_10_)" stroke="#FCCC12" stroke-width="0.199" stroke-miterlimit="10" points="51.827,28.426 
			51.815,32.066 52.874,32.066 52.874,28.426 		"/>
		<g>
			
				<linearGradient id="SVGID_11_" gradientUnits="userSpaceOnUse" x1="-23.8442" y1="-659.4521" x2="-21.8813" y2="-659.4521" gradientTransform="matrix(1 0 0 -1 75.6597 -633.4004)">
				<stop  offset="0" style="stop-color:#F7F8A6"/>
				<stop  offset="0.073" style="stop-color:#F7CA33"/>
				<stop  offset="0.0965" style="stop-color:#F7CD3B"/>
				<stop  offset="0.1335" style="stop-color:#F7D751"/>
				<stop  offset="0.1793" style="stop-color:#F7E676"/>
				<stop  offset="0.2247" style="stop-color:#F7F8A6"/>
				<stop  offset="0.3202" style="stop-color:#F6D868"/>
				<stop  offset="0.4045" style="stop-color:#CFAE41"/>
				<stop  offset="0.4647" style="stop-color:#D8B43E"/>
				<stop  offset="0.5573" style="stop-color:#F2C635"/>
				<stop  offset="0.573" style="stop-color:#F7CA33"/>
				<stop  offset="0.9157" style="stop-color:#DEB430"/>
				<stop  offset="1" style="stop-color:#F7CA33"/>
			</linearGradient>
			<path fill="url(#SVGID_11_)" stroke="#FCCC12" stroke-width="0.199" stroke-miterlimit="10" d="M52.896,27.254
				c0,0-0.099-0.699,0.114-1.026c0.174-0.266,0.768-0.039,0.768-0.039v-1.235c0,0-0.469-0.17-0.893-0.078
				c-0.442,0.097-0.813,0.504-0.956,0.945c-0.114,0.349-0.114,1.414-0.114,1.414"/>
			
				<linearGradient id="SVGID_12_" gradientUnits="userSpaceOnUse" x1="-21.5278" y1="-663.6279" x2="-20.4702" y2="-663.6279" gradientTransform="matrix(1 0 0 -1 75.6597 -633.4004)">
				<stop  offset="0" style="stop-color:#F7F8A6"/>
				<stop  offset="0.073" style="stop-color:#F7CA33"/>
				<stop  offset="0.0965" style="stop-color:#F7CD3B"/>
				<stop  offset="0.1335" style="stop-color:#F7D751"/>
				<stop  offset="0.1793" style="stop-color:#F7E676"/>
				<stop  offset="0.2247" style="stop-color:#F7F8A6"/>
				<stop  offset="0.3202" style="stop-color:#F6D868"/>
				<stop  offset="0.4045" style="stop-color:#CFAE41"/>
				<stop  offset="0.4647" style="stop-color:#D8B43E"/>
				<stop  offset="0.5573" style="stop-color:#F2C635"/>
				<stop  offset="0.573" style="stop-color:#F7CA33"/>
				<stop  offset="0.9157" style="stop-color:#DEB430"/>
				<stop  offset="1" style="stop-color:#F7CA33"/>
			</linearGradient>
			
				<rect x="54.132" y="28.389" fill="url(#SVGID_12_)" stroke="#FCCC12" stroke-width="0.199" stroke-miterlimit="10" width="1.058" height="3.677"/>
			
				<linearGradient id="SVGID_13_" gradientUnits="userSpaceOnUse" x1="-18.5093" y1="-662.9883" x2="-16.3599" y2="-662.9883" gradientTransform="matrix(1 0 0 -1 75.6597 -633.4004)">
				<stop  offset="0" style="stop-color:#F7F8A6"/>
				<stop  offset="0.073" style="stop-color:#F7CA33"/>
				<stop  offset="0.0965" style="stop-color:#F7CD3B"/>
				<stop  offset="0.1335" style="stop-color:#F7D751"/>
				<stop  offset="0.1793" style="stop-color:#F7E676"/>
				<stop  offset="0.2247" style="stop-color:#F7F8A6"/>
				<stop  offset="0.3202" style="stop-color:#F6D868"/>
				<stop  offset="0.4045" style="stop-color:#CFAE41"/>
				<stop  offset="0.4647" style="stop-color:#D8B43E"/>
				<stop  offset="0.5573" style="stop-color:#F2C635"/>
				<stop  offset="0.573" style="stop-color:#F7CA33"/>
				<stop  offset="0.9157" style="stop-color:#DEB430"/>
				<stop  offset="1" style="stop-color:#F7CA33"/>
			</linearGradient>
			<path fill="url(#SVGID_13_)" stroke="#FCCC12" stroke-width="0.199" stroke-miterlimit="10" d="M57.15,28
				c0,0,0.18-0.694,0.894-0.888c0.289-0.077,1.124,0.193,1.209,0.888c0.085,0.708,0.028,4.075,0.028,4.075l-1.076-0.009
				c0,0-0.002-2.417-0.019-2.945c-0.029-1.065-0.651-0.806-0.778-0.66c-0.208,0.238-0.258,0.578-0.258,0.578V28L57.15,28z"/>
			
				<linearGradient id="SVGID_14_" gradientUnits="userSpaceOnUse" x1="-19.5835" y1="-663.0869" x2="-18.5259" y2="-663.0869" gradientTransform="matrix(1 0 0 -1 75.6597 -633.4004)">
				<stop  offset="0" style="stop-color:#F7F8A6"/>
				<stop  offset="0.073" style="stop-color:#F7CA33"/>
				<stop  offset="0.0965" style="stop-color:#F7CD3B"/>
				<stop  offset="0.1335" style="stop-color:#F7D751"/>
				<stop  offset="0.1793" style="stop-color:#F7E676"/>
				<stop  offset="0.2247" style="stop-color:#F7F8A6"/>
				<stop  offset="0.3202" style="stop-color:#F6D868"/>
				<stop  offset="0.4045" style="stop-color:#CFAE41"/>
				<stop  offset="0.4647" style="stop-color:#D8B43E"/>
				<stop  offset="0.5573" style="stop-color:#F2C635"/>
				<stop  offset="0.573" style="stop-color:#F7CA33"/>
				<stop  offset="0.9157" style="stop-color:#DEB430"/>
				<stop  offset="1" style="stop-color:#F7CA33"/>
			</linearGradient>
			
				<rect x="56.076" y="27.307" fill="url(#SVGID_14_)" stroke="#FCCC12" stroke-width="0.199" stroke-miterlimit="10" width="1.058" height="4.759"/>
			
				<linearGradient id="SVGID_15_" gradientUnits="userSpaceOnUse" x1="-16.3599" y1="-662.9883" x2="-14.209" y2="-662.9883" gradientTransform="matrix(1 0 0 -1 75.6597 -633.4004)">
				<stop  offset="0" style="stop-color:#F7F8A6"/>
				<stop  offset="0.073" style="stop-color:#F7CA33"/>
				<stop  offset="0.0965" style="stop-color:#F7CD3B"/>
				<stop  offset="0.1335" style="stop-color:#F7D751"/>
				<stop  offset="0.1793" style="stop-color:#F7E676"/>
				<stop  offset="0.2247" style="stop-color:#F7F8A6"/>
				<stop  offset="0.3202" style="stop-color:#F6D868"/>
				<stop  offset="0.4045" style="stop-color:#CFAE41"/>
				<stop  offset="0.4647" style="stop-color:#D8B43E"/>
				<stop  offset="0.5573" style="stop-color:#F2C635"/>
				<stop  offset="0.573" style="stop-color:#F7CA33"/>
				<stop  offset="0.9157" style="stop-color:#DEB430"/>
				<stop  offset="1" style="stop-color:#F7CA33"/>
			</linearGradient>
			<path fill="url(#SVGID_15_)" stroke="#FCCC12" stroke-width="0.199" stroke-miterlimit="10" d="M59.301,28
				c0,0,0.179-0.694,0.894-0.888c0.288-0.077,1.123,0.193,1.208,0.888c0.087,0.708,0.03,4.075,0.03,4.075l-1.078-0.009
				c0,0-0.003-2.417-0.019-2.945c-0.03-1.065-0.65-0.806-0.778-0.66c-0.208,0.238-0.258,0.578-0.258,0.578L59.301,28L59.301,28z"/>
			
				<linearGradient id="SVGID_16_" gradientUnits="userSpaceOnUse" x1="-21.5278" y1="-659.8521" x2="-20.3188" y2="-659.8521" gradientTransform="matrix(1 0 0 -1 75.6597 -633.4004)">
				<stop  offset="0" style="stop-color:#F7F8A6"/>
				<stop  offset="0.073" style="stop-color:#F7CA33"/>
				<stop  offset="0.0965" style="stop-color:#F7CD3B"/>
				<stop  offset="0.1335" style="stop-color:#F7D751"/>
				<stop  offset="0.1793" style="stop-color:#F7E676"/>
				<stop  offset="0.2247" style="stop-color:#F7F8A6"/>
				<stop  offset="0.3202" style="stop-color:#F6D868"/>
				<stop  offset="0.4045" style="stop-color:#CFAE41"/>
				<stop  offset="0.4647" style="stop-color:#D8B43E"/>
				<stop  offset="0.5573" style="stop-color:#F2C635"/>
				<stop  offset="0.573" style="stop-color:#F7CA33"/>
				<stop  offset="0.9157" style="stop-color:#DEB430"/>
				<stop  offset="1" style="stop-color:#F7CA33"/>
			</linearGradient>
			
				<ellipse fill="url(#SVGID_16_)" stroke="#FCCC12" stroke-width="0.199" stroke-miterlimit="10" cx="54.736" cy="26.452" rx="0.604" ry="0.792"/>
		</g>
	</g>
	<g>
		<g enable-background="new    ">
			<path fill="#F8F853" stroke="#FCCC12" stroke-width="0.199" stroke-miterlimit="10" d="M34.667,62.612
				c-0.117-0.116-0.176-0.176-0.292-0.29c0.555-0.199,1.065-0.277,1.507-0.292c0.296-0.012,0.526,0.005,0.681,0.043
				c0.228,0.057,0.421,0.158,0.583,0.303c0.231,0.207,0.753,1.231,0.826,1.246c0.157,0.03,1.185-0.731,1.695-0.825
				s0.939-0.119,1.295-0.097c0.184,0.012,0.335,0.04,0.457,0.082c0.121,0.043,0.192,0.091,0.211,0.152
				c0.022,0.068-0.034,0.126-0.175,0.173c-0.1,0.031-0.396,0.055-0.898,0.032c-0.412-0.018-0.77-0.001-1.062,0.085
				c-0.468,0.139-0.904,0.388-1.295,0.814c0.361,0.644,0.545,0.969,0.905,1.571c0.39,0.658,0.747,1.077,1.076,1.305
				c0.33,0.229,0.698,0.346,1.108,0.377c0.234,0.017,0.479-0.014,0.736-0.08c0.364-0.099,0.598-0.257,0.705-0.477
				c0.069-0.146,0.221-0.252,0.449-0.316c0.108-0.029,0.209-0.037,0.303-0.023c0.092,0.017,0.148,0.049,0.166,0.103
				c0.036,0.109-0.08,0.244-0.355,0.423c-0.277,0.175-0.662,0.337-1.157,0.479c-0.549,0.155-1.101,0.232-1.653,0.198
				c-0.552-0.034-1.064-0.21-1.535-0.59c-0.471-0.381-1.44-2.235-1.521-2.247c-0.024-0.005-0.258,0.253-0.475,0.484
				c-0.616,0.655-1.12,1.115-1.49,1.303c-0.372,0.189-0.743,0.267-1.108,0.23c-0.257-0.025-0.474-0.1-0.657-0.226
				c-0.183-0.129-0.283-0.271-0.306-0.42c-0.018-0.124,0.018-0.224,0.112-0.3c0.094-0.076,0.213-0.102,0.356-0.08
				c0.148,0.021,0.316,0.117,0.495,0.284c0.154,0.143,0.293,0.222,0.416,0.232c0.082,0.007,0.172-0.003,0.264-0.034
				c0.134-0.045,0.312-0.162,0.526-0.337c0.305-0.246,0.54-0.46,0.695-0.638c0.362-0.417,0.542-0.618,0.908-0.982
				c-0.231-0.439-0.348-0.666-0.574-1.097c-0.149-0.292-0.279-0.482-0.392-0.577c-0.113-0.096-0.229-0.156-0.347-0.184
				c-0.089-0.02-0.211-0.02-0.359-0.003C35.175,62.45,34.897,62.515,34.667,62.612z"/>
			<path fill="#F8F853" stroke="#FCCC12" stroke-width="0.199" stroke-miterlimit="10" d="M41.615,63.74
				c-0.146-0.056-0.222-0.085-0.368-0.146c0.433-0.275,0.868-0.463,1.294-0.624c0.426-0.159,0.777-0.298,1.092-0.386
				c0.117-0.032,0.214-0.048,0.293-0.043c0.078,0.005,0.127,0.033,0.146,0.082c0.023,0.06,0.032,0.127,0.026,0.202
				c-0.005,0.075-0.115,0.558-0.115,0.558c0.03,0.016,1.018-0.934,1.241-1.104c0.379-0.288,0.736-0.511,1.081-0.669
				c0.226-0.104,0.438-0.149,0.639-0.137c0.2,0.013,0.347,0.105,0.443,0.29c0.24,0.462,0.143,1.115-0.364,1.94
				s-1.241,1.458-2.17,1.767c-0.365,0.122-0.749,0.185-1.154,0.201c-0.122,0.534-0.186,0.807-0.328,1.297
				c-0.023,0.074-0.027,0.13-0.015,0.168c0.026,0.073,0.122,0.099,0.286,0.079c0.255-0.023,0.764-0.12,1.506-0.324
				c-0.017,0.068-0.025,0.102-0.044,0.168c-0.866,0.238-1.573,0.429-2.094,0.587c-0.538,0.164-1.241,0.394-2.127,0.661
				c0.029-0.066,0.044-0.103,0.073-0.173c0.441-0.139,0.75-0.271,0.929-0.396c0.177-0.124,0.298-0.292,0.358-0.518
				c0.313-1.169,0.436-1.918,0.666-3.107c0.11-0.555,0.147-0.828,0.13-0.879c-0.02-0.059-0.091-0.079-0.22-0.059
				C42.596,63.21,42.209,63.392,41.615,63.74z M43.762,65.236c0.467,0.076,0.908,0.039,1.323-0.111
				c0.603-0.215,1.039-0.653,1.303-1.259c0.261-0.605,0.295-1.095,0.129-1.455c-0.053-0.116-0.152-0.174-0.295-0.182
				c-0.143-0.007-0.312,0.031-0.508,0.112c-0.221,0.092-0.447,0.236-0.688,0.439c-0.371,0.313-0.655,0.585-0.833,0.818
				c-0.128,0.169-0.219,0.42-0.273,0.759C43.861,64.708,43.828,64.886,43.762,65.236z"/>
			<path fill="#F8F853" stroke="#FCCC12" stroke-width="0.199" stroke-miterlimit="10" d="M51.796,60.155
				c0.107-0.027,0.163-0.043,0.271-0.071c-0.661,1.175-1.434,2.105-2.206,2.672c-0.313,0.23-0.585,0.355-0.802,0.38
				c-0.22,0.024-0.384-0.067-0.49-0.271c-0.219-0.41-0.137-1,0.183-1.725c0.36-0.817,0.92-1.47,1.683-2.071
				c0.267-0.21,0.485-0.35,0.664-0.414c0.18-0.065,0.306-0.054,0.381,0.036c0.08,0.094,0.078,0.259-0.014,0.494
				c-0.09,0.236-0.312,0.592-0.69,1.062c-0.19,0.234-1.154,0.916-1.328,1.438c-0.022,0.068,0.055,0.229,0.108,0.315
				c0.076,0.127,0.178,0.179,0.306,0.158c0.126-0.021,0.284-0.103,0.467-0.241c0.174-0.134,0.351-0.301,0.528-0.503
				C51.094,61.145,51.418,60.721,51.796,60.155z M49.421,61.463c0.085,0.023,0.997-1.1,1.215-1.478
				c0.147-0.259,0.185-0.432,0.116-0.521c-0.05-0.065-0.133-0.08-0.249-0.052c-0.115,0.028-0.242,0.095-0.381,0.201
				c-0.144,0.107-0.268,0.233-0.375,0.377c-0.144,0.193-0.243,0.396-0.289,0.611C49.39,60.915,49.421,61.463,49.421,61.463z"/>
			<path fill="#F8F853" stroke="#FCCC12" stroke-width="0.199" stroke-miterlimit="10" d="M54.228,58.795
				c-0.308,0.34-0.467,0.505-0.795,0.827c-0.049-0.378-0.076-0.566-0.135-0.939c-0.075-0.459-0.163-0.878-0.271-1.255
				c-0.027-0.091-0.05-0.146-0.064-0.16c-0.031-0.031-0.081-0.011-0.152,0.068c-0.049,0.054-0.112,0.148-0.188,0.286
				c-0.078,0.137-0.201,0.401-0.385,0.789c-0.091,0.034-0.138,0.049-0.229,0.08c0.211-0.464,0.438-0.899,0.683-1.305
				c0.243-0.406,0.435-0.71,0.589-0.897c0.056-0.067,0.104-0.113,0.146-0.145c0.042-0.027,0.071-0.034,0.089-0.017
				s0.044,0.087,0.079,0.209c0.067,0.239,0.098,0.357,0.159,0.596c0.104-0.59,0.259-1.205,0.45-1.849
				c0.093-0.309,0.188-0.544,0.294-0.711c0.076-0.12,0.153-0.214,0.229-0.273c0.077-0.062,0.136-0.074,0.172-0.045
				c0.037,0.031,0.045,0.099,0.022,0.203c-0.022,0.103-0.11,0.333-0.283,0.682c-0.162,0.331-0.289,0.607-0.375,0.836
				c-0.085,0.226-0.162,0.491-0.234,0.8c-0.071,0.307-0.112,0.534-0.111,0.689c0,0.153,0.059,0.446,0.163,0.877
				C54.141,58.405,54.17,58.533,54.228,58.795z"/>
			<path fill="#F8F853" stroke="#FCCC12" stroke-width="0.199" stroke-miterlimit="10" d="M55.16,52.63
				c0.151-0.45,0.222-0.678,0.346-1.14c0.164,0.363,0.243,0.547,0.398,0.916c0.252-0.559,0.367-0.846,0.575-1.432
				c0.046,0.085,0.07,0.128,0.116,0.215c-0.212,0.588-0.329,0.877-0.587,1.438c0.182,0.448,0.271,0.673,0.439,1.131
				c0.122,0.354,0.222,0.567,0.306,0.633c0.039,0.029,0.079,0.023,0.123-0.017s0.091-0.108,0.137-0.202
				c0.07-0.144,0.152-0.388,0.235-0.731c0.107-0.45,0.184-0.893,0.23-1.322c0.083-0.084,0.123-0.127,0.205-0.214
				c-0.142,1.245-0.337,2.048-0.455,2.434c-0.119,0.388-0.24,0.683-0.354,0.888c-0.095,0.17-0.19,0.288-0.283,0.352
				c-0.096,0.065-0.185,0.06-0.27-0.013c-0.102-0.084-0.206-0.297-0.316-0.635c-0.181-0.544-0.276-0.811-0.476-1.345
				c-0.225,0.426-0.342,0.631-0.592,1.035c-0.031-0.096-0.048-0.144-0.081-0.238c0.247-0.404,0.364-0.609,0.586-1.032
				C55.333,53.06,55.275,52.917,55.16,52.63z"/>
		</g>
	</g>
</g>
</svg>
