<?xml version="1.0" encoding="utf-8"?>
<!-- Generator: Adobe Illustrator 16.0.0, SVG Export Plug-In . SVG Version: 6.00 Build 0)  -->
<!DOCTYPE svg PUBLIC "-//W3C//DTD SVG 1.1//EN" "http://www.w3.org/Graphics/SVG/1.1/DTD/svg11.dtd">
<svg version="1.1" id="Calque_1" xmlns="http://www.w3.org/2000/svg" xmlns:xlink="http://www.w3.org/1999/xlink" x="0px" y="0px"
	 width="92px" height="56px" viewBox="0 0 92 56" enable-background="new 0 0 92 56" xml:space="preserve">
<g>
	<g>
		<g>
			
				<linearGradient id="SVGID_1_" gradientUnits="userSpaceOnUse" x1="-20.2925" y1="-678.7383" x2="-18.9297" y2="-678.7383" gradientTransform="matrix(1 0 0 -1 75.6597 -657.4004)">
				<stop  offset="0" style="stop-color:#F7F8A6"/>
				<stop  offset="0.073" style="stop-color:#F7CA33"/>
				<stop  offset="0.0965" style="stop-color:#F7CD3B"/>
				<stop  offset="0.1335" style="stop-color:#F7D751"/>
				<stop  offset="0.1793" style="stop-color:#F7E676"/>
				<stop  offset="0.2247" style="stop-color:#F7F8A6"/>
				<stop  offset="0.3202" style="stop-color:#F6D868"/>
				<stop  offset="0.4045" style="stop-color:#CFAE41"/>
				<stop  offset="0.4647" style="stop-color:#D8B43E"/>
				<stop  offset="0.5573" style="stop-color:#F2C635"/>
				<stop  offset="0.573" style="stop-color:#F7CA33"/>
				<stop  offset="0.9157" style="stop-color:#DEB430"/>
				<stop  offset="1" style="stop-color:#F7CA33"/>
			</linearGradient>
			<polyline fill="none" stroke="url(#SVGID_1_)" stroke-width="0.1427" stroke-miterlimit="10" points="55.367,22.687 
				56.643,22.685 56.078,19.932 			"/>
			
				<linearGradient id="SVGID_2_" gradientUnits="userSpaceOnUse" x1="-22.9844" y1="-668.1421" x2="-19.686" y2="-668.1421" gradientTransform="matrix(1 0 0 -1 75.6597 -657.4004)">
				<stop  offset="0" style="stop-color:#F7F8A6"/>
				<stop  offset="0.073" style="stop-color:#F7CA33"/>
				<stop  offset="0.0965" style="stop-color:#F7CD3B"/>
				<stop  offset="0.1335" style="stop-color:#F7D751"/>
				<stop  offset="0.1793" style="stop-color:#F7E676"/>
				<stop  offset="0.2247" style="stop-color:#F7F8A6"/>
				<stop  offset="0.3202" style="stop-color:#F6D868"/>
				<stop  offset="0.4045" style="stop-color:#CFAE41"/>
				<stop  offset="0.4647" style="stop-color:#D8B43E"/>
				<stop  offset="0.5573" style="stop-color:#F2C635"/>
				<stop  offset="0.573" style="stop-color:#F7CA33"/>
				<stop  offset="0.9157" style="stop-color:#DEB430"/>
				<stop  offset="1" style="stop-color:#F7CA33"/>
			</linearGradient>
			<polyline fill="none" stroke="url(#SVGID_2_)" stroke-width="0.1427" stroke-miterlimit="10" points="55.903,18.959 53.024,3 
				52.746,5.414 			"/>
		</g>
		
			<linearGradient id="SVGID_3_" gradientUnits="userSpaceOnUse" x1="-20.8706" y1="-676.2529" x2="-20.8706" y2="-676.2529" gradientTransform="matrix(1 0 0 -1 75.6597 -657.4004)">
			<stop  offset="0" style="stop-color:#F7F8A6"/>
			<stop  offset="0.073" style="stop-color:#F7CA33"/>
			<stop  offset="0.0965" style="stop-color:#F7CD3B"/>
			<stop  offset="0.1335" style="stop-color:#F7D751"/>
			<stop  offset="0.1793" style="stop-color:#F7E676"/>
			<stop  offset="0.2247" style="stop-color:#F7F8A6"/>
			<stop  offset="0.3202" style="stop-color:#F6D868"/>
			<stop  offset="0.4045" style="stop-color:#CFAE41"/>
			<stop  offset="0.4647" style="stop-color:#D8B43E"/>
			<stop  offset="0.5573" style="stop-color:#F2C635"/>
			<stop  offset="0.573" style="stop-color:#F7CA33"/>
			<stop  offset="0.9157" style="stop-color:#DEB430"/>
			<stop  offset="1" style="stop-color:#F7CA33"/>
		</linearGradient>
		<path fill="url(#SVGID_3_)" d="M54.789,18.853"/>
		
			<linearGradient id="SVGID_4_" gradientUnits="userSpaceOnUse" x1="-20.7114" y1="-677.2104" x2="-20.7114" y2="-677.2104" gradientTransform="matrix(1 0 0 -1 75.6597 -657.4004)">
			<stop  offset="0" style="stop-color:#F7F8A6"/>
			<stop  offset="0.073" style="stop-color:#F7CA33"/>
			<stop  offset="0.0965" style="stop-color:#F7CD3B"/>
			<stop  offset="0.1335" style="stop-color:#F7D751"/>
			<stop  offset="0.1793" style="stop-color:#F7E676"/>
			<stop  offset="0.2247" style="stop-color:#F7F8A6"/>
			<stop  offset="0.3202" style="stop-color:#F6D868"/>
			<stop  offset="0.4045" style="stop-color:#CFAE41"/>
			<stop  offset="0.4647" style="stop-color:#D8B43E"/>
			<stop  offset="0.5573" style="stop-color:#F2C635"/>
			<stop  offset="0.573" style="stop-color:#F7CA33"/>
			<stop  offset="0.9157" style="stop-color:#DEB430"/>
			<stop  offset="1" style="stop-color:#F7CA33"/>
		</linearGradient>
		<path fill="url(#SVGID_4_)" d="M54.948,19.81"/>
		
			<linearGradient id="SVGID_5_" gradientUnits="userSpaceOnUse" x1="-25.3286" y1="-669.2715" x2="-20.6548" y2="-669.2715" gradientTransform="matrix(1 0 0 -1 75.6597 -657.4004)">
			<stop  offset="0" style="stop-color:#F7F8A6"/>
			<stop  offset="0.073" style="stop-color:#F7CA33"/>
			<stop  offset="0.0965" style="stop-color:#F7CD3B"/>
			<stop  offset="0.1335" style="stop-color:#F7D751"/>
			<stop  offset="0.1793" style="stop-color:#F7E676"/>
			<stop  offset="0.2247" style="stop-color:#F7F8A6"/>
			<stop  offset="0.3202" style="stop-color:#F6D868"/>
			<stop  offset="0.4045" style="stop-color:#CFAE41"/>
			<stop  offset="0.4647" style="stop-color:#D8B43E"/>
			<stop  offset="0.5573" style="stop-color:#F2C635"/>
			<stop  offset="0.573" style="stop-color:#F7CA33"/>
			<stop  offset="0.9157" style="stop-color:#DEB430"/>
			<stop  offset="1" style="stop-color:#F7CA33"/>
		</linearGradient>
		<polygon fill="url(#SVGID_5_)" points="55.005,18.853 52.785,4.878 50.331,18.865 		"/>
		
			<linearGradient id="SVGID_6_" gradientUnits="userSpaceOnUse" x1="-35.9585" y1="-685.5811" x2="-23.3052" y2="-685.5811" gradientTransform="matrix(1 0 0 -1 75.6597 -657.4004)">
			<stop  offset="0" style="stop-color:#F7F8A6"/>
			<stop  offset="0.073" style="stop-color:#F7CA33"/>
			<stop  offset="0.0965" style="stop-color:#F7CD3B"/>
			<stop  offset="0.1335" style="stop-color:#F7D751"/>
			<stop  offset="0.1793" style="stop-color:#F7E676"/>
			<stop  offset="0.2247" style="stop-color:#F7F8A6"/>
			<stop  offset="0.3202" style="stop-color:#F6D868"/>
			<stop  offset="0.4045" style="stop-color:#CFAE41"/>
			<stop  offset="0.4647" style="stop-color:#D8B43E"/>
			<stop  offset="0.5573" style="stop-color:#F2C635"/>
			<stop  offset="0.573" style="stop-color:#F7CA33"/>
			<stop  offset="0.9157" style="stop-color:#DEB430"/>
			<stop  offset="1" style="stop-color:#F7CA33"/>
		</linearGradient>
		<polygon fill="url(#SVGID_6_)" points="52.354,4.329 39.701,52.032 43.862,52.032 		"/>
		
			<linearGradient id="SVGID_7_" gradientUnits="userSpaceOnUse" x1="-33.8281" y1="-675.1533" x2="-25.4907" y2="-675.1533" gradientTransform="matrix(1 0 0 -1 75.6597 -657.4004)">
			<stop  offset="0" style="stop-color:#F7F8A6"/>
			<stop  offset="0.073" style="stop-color:#F7CA33"/>
			<stop  offset="0.0965" style="stop-color:#F7CD3B"/>
			<stop  offset="0.1335" style="stop-color:#F7D751"/>
			<stop  offset="0.1793" style="stop-color:#F7E676"/>
			<stop  offset="0.2247" style="stop-color:#F7F8A6"/>
			<stop  offset="0.3202" style="stop-color:#F6D868"/>
			<stop  offset="0.4045" style="stop-color:#CFAE41"/>
			<stop  offset="0.4647" style="stop-color:#D8B43E"/>
			<stop  offset="0.5573" style="stop-color:#F2C635"/>
			<stop  offset="0.573" style="stop-color:#F7CA33"/>
			<stop  offset="0.9157" style="stop-color:#DEB430"/>
			<stop  offset="1" style="stop-color:#F7CA33"/>
		</linearGradient>
		<path fill="url(#SVGID_7_)" d="M44.82,19.444c-0.78,0.09-1.106,0.132-1.84,0.366l-1.148,4.303
			c1.535-0.818,3.101-1.233,5.335-1.405l0.983-3.494c-1.475,0-2.563-1.399-2.563-2.972s1.196-2.846,2.672-2.846
			c0.369,0,1.045,0.079,1.366,0.222l0.544-1.851c-0.52-0.242-1.306-0.375-1.906-0.375c-2.398,0-4.453,2.14-4.453,4.779
			c0,1.181,0.608,2.388,1.254,3.222L44.82,19.444z"/>
		
			<linearGradient id="SVGID_8_" gradientUnits="userSpaceOnUse" x1="-42.7051" y1="-691.2773" x2="-32.9707" y2="-691.2773" gradientTransform="matrix(1 0 0 -1 75.6597 -657.4004)">
			<stop  offset="0" style="stop-color:#F7F8A6"/>
			<stop  offset="0.073" style="stop-color:#F7CA33"/>
			<stop  offset="0.0965" style="stop-color:#F7CD3B"/>
			<stop  offset="0.1335" style="stop-color:#F7D751"/>
			<stop  offset="0.1793" style="stop-color:#F7E676"/>
			<stop  offset="0.2247" style="stop-color:#F7F8A6"/>
			<stop  offset="0.3202" style="stop-color:#F6D868"/>
			<stop  offset="0.4045" style="stop-color:#CFAE41"/>
			<stop  offset="0.4647" style="stop-color:#D8B43E"/>
			<stop  offset="0.5573" style="stop-color:#F2C635"/>
			<stop  offset="0.573" style="stop-color:#F7CA33"/>
			<stop  offset="0.9157" style="stop-color:#DEB430"/>
			<stop  offset="1" style="stop-color:#F7CA33"/>
		</linearGradient>
		<path fill="url(#SVGID_8_)" d="M40.466,47.908c-4.451-2.478-7.511-7.635-7.511-13.602c0-6.779,4.279-12.517,9.734-14.46
			l-1.254,4.531c-3.173,2.061-5.285,5.724-5.285,9.9c0,4.181,2.116,7.847,5.296,9.906L40.466,47.908z"/>
		
			<linearGradient id="SVGID_9_" gradientUnits="userSpaceOnUse" x1="-25.9624" y1="-678.6572" x2="-19.8853" y2="-678.6572" gradientTransform="matrix(1 0 0 -1 75.6597 -657.4004)">
			<stop  offset="0" style="stop-color:#F7F8A6"/>
			<stop  offset="0.073" style="stop-color:#F7CA33"/>
			<stop  offset="0.0965" style="stop-color:#F7CD3B"/>
			<stop  offset="0.1335" style="stop-color:#F7D751"/>
			<stop  offset="0.1793" style="stop-color:#F7E676"/>
			<stop  offset="0.2247" style="stop-color:#F7F8A6"/>
			<stop  offset="0.3202" style="stop-color:#F6D868"/>
			<stop  offset="0.4045" style="stop-color:#CFAE41"/>
			<stop  offset="0.4647" style="stop-color:#D8B43E"/>
			<stop  offset="0.5573" style="stop-color:#F2C635"/>
			<stop  offset="0.573" style="stop-color:#F7CA33"/>
			<stop  offset="0.9157" style="stop-color:#DEB430"/>
			<stop  offset="1" style="stop-color:#F7CA33"/>
		</linearGradient>
		<polyline fill="url(#SVGID_9_)" points="50.123,19.827 49.697,22.687 55.774,22.685 55.261,19.887 		"/>
	</g>
	<g>
		
			<linearGradient id="SVGID_10_" gradientUnits="userSpaceOnUse" x1="-18.8706" y1="-678.665" x2="-18.1655" y2="-678.665" gradientTransform="matrix(1 0 0 -1 75.6597 -657.4004)">
			<stop  offset="0" style="stop-color:#F7F8A6"/>
			<stop  offset="0.073" style="stop-color:#F7CA33"/>
			<stop  offset="0.0965" style="stop-color:#F7CD3B"/>
			<stop  offset="0.1335" style="stop-color:#F7D751"/>
			<stop  offset="0.1793" style="stop-color:#F7E676"/>
			<stop  offset="0.2247" style="stop-color:#F7F8A6"/>
			<stop  offset="0.3202" style="stop-color:#F6D868"/>
			<stop  offset="0.4045" style="stop-color:#CFAE41"/>
			<stop  offset="0.4647" style="stop-color:#D8B43E"/>
			<stop  offset="0.5573" style="stop-color:#F2C635"/>
			<stop  offset="0.573" style="stop-color:#F7CA33"/>
			<stop  offset="0.9157" style="stop-color:#DEB430"/>
			<stop  offset="1" style="stop-color:#F7CA33"/>
		</linearGradient>
		<polyline fill="url(#SVGID_10_)" stroke="#FCCC12" stroke-width="0.1427" stroke-miterlimit="10" points="56.796,19.86 
			56.789,22.668 57.494,22.668 57.494,19.86 		"/>
		<g>
			
				<linearGradient id="SVGID_11_" gradientUnits="userSpaceOnUse" x1="-18.8706" y1="-675.4292" x2="-17.563" y2="-675.4292" gradientTransform="matrix(1 0 0 -1 75.6597 -657.4004)">
				<stop  offset="0" style="stop-color:#F7F8A6"/>
				<stop  offset="0.073" style="stop-color:#F7CA33"/>
				<stop  offset="0.0965" style="stop-color:#F7CD3B"/>
				<stop  offset="0.1335" style="stop-color:#F7D751"/>
				<stop  offset="0.1793" style="stop-color:#F7E676"/>
				<stop  offset="0.2247" style="stop-color:#F7F8A6"/>
				<stop  offset="0.3202" style="stop-color:#F6D868"/>
				<stop  offset="0.4045" style="stop-color:#CFAE41"/>
				<stop  offset="0.4647" style="stop-color:#D8B43E"/>
				<stop  offset="0.5573" style="stop-color:#F2C635"/>
				<stop  offset="0.573" style="stop-color:#F7CA33"/>
				<stop  offset="0.9157" style="stop-color:#DEB430"/>
				<stop  offset="1" style="stop-color:#F7CA33"/>
			</linearGradient>
			<path fill="url(#SVGID_11_)" stroke="#FCCC12" stroke-width="0.1427" stroke-miterlimit="10" d="M57.51,18.957
				c0,0-0.066-0.54,0.076-0.792c0.114-0.206,0.511-0.03,0.511-0.03v-0.952c0,0-0.313-0.132-0.596-0.061
				c-0.295,0.075-0.542,0.389-0.637,0.729c-0.075,0.27-0.075,1.09-0.075,1.09"/>
			
				<linearGradient id="SVGID_12_" gradientUnits="userSpaceOnUse" x1="-17.3257" y1="-678.6504" x2="-16.6216" y2="-678.6504" gradientTransform="matrix(1 0 0 -1 75.6597 -657.4004)">
				<stop  offset="0" style="stop-color:#F7F8A6"/>
				<stop  offset="0.073" style="stop-color:#F7CA33"/>
				<stop  offset="0.0965" style="stop-color:#F7CD3B"/>
				<stop  offset="0.1335" style="stop-color:#F7D751"/>
				<stop  offset="0.1793" style="stop-color:#F7E676"/>
				<stop  offset="0.2247" style="stop-color:#F7F8A6"/>
				<stop  offset="0.3202" style="stop-color:#F6D868"/>
				<stop  offset="0.4045" style="stop-color:#CFAE41"/>
				<stop  offset="0.4647" style="stop-color:#D8B43E"/>
				<stop  offset="0.5573" style="stop-color:#F2C635"/>
				<stop  offset="0.573" style="stop-color:#F7CA33"/>
				<stop  offset="0.9157" style="stop-color:#DEB430"/>
				<stop  offset="1" style="stop-color:#F7CA33"/>
			</linearGradient>
			
				<rect x="58.334" y="19.832" fill="url(#SVGID_12_)" stroke="#FCCC12" stroke-width="0.1427" stroke-miterlimit="10" width="0.704" height="2.837"/>
			
				<linearGradient id="SVGID_13_" gradientUnits="userSpaceOnUse" x1="-15.314" y1="-678.1572" x2="-13.8804" y2="-678.1572" gradientTransform="matrix(1 0 0 -1 75.6597 -657.4004)">
				<stop  offset="0" style="stop-color:#F7F8A6"/>
				<stop  offset="0.073" style="stop-color:#F7CA33"/>
				<stop  offset="0.0965" style="stop-color:#F7CD3B"/>
				<stop  offset="0.1335" style="stop-color:#F7D751"/>
				<stop  offset="0.1793" style="stop-color:#F7E676"/>
				<stop  offset="0.2247" style="stop-color:#F7F8A6"/>
				<stop  offset="0.3202" style="stop-color:#F6D868"/>
				<stop  offset="0.4045" style="stop-color:#CFAE41"/>
				<stop  offset="0.4647" style="stop-color:#D8B43E"/>
				<stop  offset="0.5573" style="stop-color:#F2C635"/>
				<stop  offset="0.573" style="stop-color:#F7CA33"/>
				<stop  offset="0.9157" style="stop-color:#DEB430"/>
				<stop  offset="1" style="stop-color:#F7CA33"/>
			</linearGradient>
			<path fill="url(#SVGID_13_)" stroke="#FCCC12" stroke-width="0.1427" stroke-miterlimit="10" d="M60.346,19.532
				c0,0,0.12-0.535,0.596-0.685c0.192-0.059,0.749,0.149,0.806,0.685c0.058,0.546,0.021,3.144,0.021,3.144l-0.72-0.007
				c0,0,0-1.865-0.012-2.272c-0.019-0.822-0.435-0.622-0.519-0.51c-0.139,0.184-0.172,0.446-0.172,0.446V19.532L60.346,19.532z"/>
			
				<linearGradient id="SVGID_14_" gradientUnits="userSpaceOnUse" x1="-16.0298" y1="-678.2334" x2="-15.3257" y2="-678.2334" gradientTransform="matrix(1 0 0 -1 75.6597 -657.4004)">
				<stop  offset="0" style="stop-color:#F7F8A6"/>
				<stop  offset="0.073" style="stop-color:#F7CA33"/>
				<stop  offset="0.0965" style="stop-color:#F7CD3B"/>
				<stop  offset="0.1335" style="stop-color:#F7D751"/>
				<stop  offset="0.1793" style="stop-color:#F7E676"/>
				<stop  offset="0.2247" style="stop-color:#F7F8A6"/>
				<stop  offset="0.3202" style="stop-color:#F6D868"/>
				<stop  offset="0.4045" style="stop-color:#CFAE41"/>
				<stop  offset="0.4647" style="stop-color:#D8B43E"/>
				<stop  offset="0.5573" style="stop-color:#F2C635"/>
				<stop  offset="0.573" style="stop-color:#F7CA33"/>
				<stop  offset="0.9157" style="stop-color:#DEB430"/>
				<stop  offset="1" style="stop-color:#F7CA33"/>
			</linearGradient>
			
				<rect x="59.63" y="18.997" fill="url(#SVGID_14_)" stroke="#FCCC12" stroke-width="0.1427" stroke-miterlimit="10" width="0.704" height="3.671"/>
			
				<linearGradient id="SVGID_15_" gradientUnits="userSpaceOnUse" x1="-13.8804" y1="-678.1572" x2="-12.4468" y2="-678.1572" gradientTransform="matrix(1 0 0 -1 75.6597 -657.4004)">
				<stop  offset="0" style="stop-color:#F7F8A6"/>
				<stop  offset="0.073" style="stop-color:#F7CA33"/>
				<stop  offset="0.0965" style="stop-color:#F7CD3B"/>
				<stop  offset="0.1335" style="stop-color:#F7D751"/>
				<stop  offset="0.1793" style="stop-color:#F7E676"/>
				<stop  offset="0.2247" style="stop-color:#F7F8A6"/>
				<stop  offset="0.3202" style="stop-color:#F6D868"/>
				<stop  offset="0.4045" style="stop-color:#CFAE41"/>
				<stop  offset="0.4647" style="stop-color:#D8B43E"/>
				<stop  offset="0.5573" style="stop-color:#F2C635"/>
				<stop  offset="0.573" style="stop-color:#F7CA33"/>
				<stop  offset="0.9157" style="stop-color:#DEB430"/>
				<stop  offset="1" style="stop-color:#F7CA33"/>
			</linearGradient>
			<path fill="url(#SVGID_15_)" stroke="#FCCC12" stroke-width="0.1427" stroke-miterlimit="10" d="M61.779,19.532
				c0,0,0.118-0.535,0.596-0.685c0.192-0.059,0.749,0.149,0.806,0.685c0.058,0.546,0.021,3.144,0.021,3.144l-0.72-0.007
				c0,0-0.002-1.865-0.012-2.272c-0.021-0.822-0.433-0.622-0.519-0.51c-0.139,0.184-0.172,0.446-0.172,0.446V19.532L61.779,19.532z"
				/>
			
				<linearGradient id="SVGID_16_" gradientUnits="userSpaceOnUse" x1="-17.3257" y1="-675.7378" x2="-16.521" y2="-675.7378" gradientTransform="matrix(1 0 0 -1 75.6597 -657.4004)">
				<stop  offset="0" style="stop-color:#F7F8A6"/>
				<stop  offset="0.073" style="stop-color:#F7CA33"/>
				<stop  offset="0.0965" style="stop-color:#F7CD3B"/>
				<stop  offset="0.1335" style="stop-color:#F7D751"/>
				<stop  offset="0.1793" style="stop-color:#F7E676"/>
				<stop  offset="0.2247" style="stop-color:#F7F8A6"/>
				<stop  offset="0.3202" style="stop-color:#F6D868"/>
				<stop  offset="0.4045" style="stop-color:#CFAE41"/>
				<stop  offset="0.4647" style="stop-color:#D8B43E"/>
				<stop  offset="0.5573" style="stop-color:#F2C635"/>
				<stop  offset="0.573" style="stop-color:#F7CA33"/>
				<stop  offset="0.9157" style="stop-color:#DEB430"/>
				<stop  offset="1" style="stop-color:#F7CA33"/>
			</linearGradient>
			
				<ellipse fill="url(#SVGID_16_)" stroke="#FCCC12" stroke-width="0.1427" stroke-miterlimit="10" cx="58.735" cy="18.337" rx="0.403" ry="0.611"/>
		</g>
	</g>
	<g>
		<g enable-background="new    ">
			<path fill="#F8F853" stroke="#FCCC12" stroke-width="0.1427" stroke-miterlimit="10" d="M45.354,46.231
				c-0.078-0.089-0.118-0.135-0.195-0.224c0.37-0.153,0.71-0.213,1.004-0.226c0.198-0.009,0.351,0.005,0.456,0.034
				c0.15,0.044,0.28,0.121,0.388,0.232c0.154,0.161,0.502,0.951,0.551,0.963c0.104,0.022,0.791-0.564,1.13-0.638
				c0.34-0.072,0.625-0.091,0.863-0.074c0.122,0.01,0.224,0.031,0.306,0.064c0.081,0.032,0.127,0.068,0.142,0.116
				c0.014,0.053-0.024,0.099-0.117,0.133c-0.067,0.024-0.265,0.043-0.6,0.026c-0.274-0.015-0.513-0.002-0.709,0.065
				c-0.311,0.106-0.603,0.299-0.862,0.628c0.241,0.497,0.362,0.747,0.604,1.212c0.259,0.508,0.498,0.831,0.718,1.006
				c0.22,0.178,0.465,0.268,0.738,0.291c0.156,0.013,0.32-0.01,0.49-0.061c0.244-0.077,0.398-0.199,0.471-0.369
				c0.047-0.111,0.147-0.193,0.299-0.243c0.074-0.024,0.141-0.029,0.202-0.018c0.063,0.012,0.1,0.036,0.112,0.078
				c0.023,0.084-0.054,0.188-0.239,0.327c-0.184,0.134-0.439,0.259-0.771,0.368c-0.365,0.12-0.733,0.181-1.103,0.154
				c-0.367-0.026-0.709-0.162-1.023-0.456c-0.313-0.293-0.96-1.723-1.015-1.732c-0.016-0.004-0.171,0.195-0.315,0.374
				c-0.411,0.505-0.747,0.86-0.994,1.005c-0.248,0.144-0.495,0.205-0.739,0.177c-0.171-0.018-0.316-0.077-0.438-0.174
				c-0.122-0.099-0.189-0.21-0.204-0.324c-0.011-0.096,0.012-0.173,0.075-0.231c0.063-0.058,0.142-0.077,0.238-0.061
				c0.099,0.015,0.21,0.09,0.33,0.218c0.103,0.111,0.196,0.172,0.278,0.181c0.054,0.005,0.114-0.004,0.176-0.026
				c0.089-0.036,0.208-0.126,0.35-0.261c0.203-0.19,0.36-0.354,0.463-0.492c0.242-0.321,0.362-0.476,0.605-0.757
				c-0.153-0.34-0.23-0.514-0.382-0.847c-0.1-0.225-0.186-0.372-0.261-0.445c-0.076-0.074-0.153-0.12-0.232-0.142
				c-0.06-0.015-0.141-0.015-0.239-0.003C45.692,46.106,45.508,46.157,45.354,46.231z"/>
			<path fill="#F8F853" stroke="#FCCC12" stroke-width="0.1427" stroke-miterlimit="10" d="M49.987,47.102
				c-0.098-0.042-0.147-0.065-0.245-0.111c0.288-0.213,0.578-0.357,0.861-0.482c0.285-0.122,0.521-0.229,0.728-0.298
				c0.079-0.024,0.145-0.036,0.196-0.033c0.053,0.004,0.086,0.026,0.098,0.064c0.016,0.046,0.022,0.097,0.019,0.155
				c-0.005,0.058-0.077,0.43-0.077,0.43c0.021,0.012,0.679-0.72,0.828-0.851c0.252-0.222,0.49-0.396,0.721-0.517
				c0.149-0.08,0.29-0.115,0.426-0.104c0.132,0.01,0.231,0.08,0.295,0.223c0.16,0.357,0.095,0.86-0.242,1.497
				c-0.34,0.638-0.829,1.124-1.447,1.362c-0.243,0.095-0.499,0.143-0.771,0.155c-0.081,0.413-0.123,0.623-0.218,1
				c-0.016,0.058-0.019,0.101-0.011,0.132c0.018,0.056,0.081,0.075,0.19,0.061c0.17-0.019,0.511-0.094,1.005-0.251
				c-0.011,0.053-0.018,0.079-0.029,0.13c-0.577,0.184-1.049,0.331-1.396,0.452c-0.359,0.126-0.828,0.304-1.418,0.51
				c0.019-0.051,0.029-0.078,0.048-0.133c0.295-0.106,0.501-0.208,0.62-0.305c0.118-0.096,0.198-0.227,0.238-0.398
				c0.208-0.903,0.29-1.48,0.444-2.398c0.074-0.428,0.098-0.64,0.086-0.679c-0.012-0.045-0.06-0.06-0.146-0.045
				C50.64,46.693,50.382,46.833,49.987,47.102z M51.419,48.256c0.311,0.06,0.604,0.029,0.883-0.085
				c0.401-0.166,0.691-0.505,0.866-0.971c0.176-0.468,0.198-0.846,0.086-1.123c-0.034-0.089-0.1-0.135-0.195-0.141
				c-0.095-0.005-0.208,0.024-0.338,0.087c-0.148,0.071-0.299,0.184-0.459,0.339c-0.247,0.243-0.438,0.451-0.556,0.631
				c-0.085,0.132-0.146,0.325-0.183,0.586C51.484,47.848,51.464,47.985,51.419,48.256z"/>
			<path fill="#F8F853" stroke="#FCCC12" stroke-width="0.1427" stroke-miterlimit="10" d="M56.775,44.336
				c0.072-0.02,0.107-0.033,0.182-0.054c-0.441,0.906-0.956,1.623-1.471,2.061c-0.21,0.177-0.39,0.275-0.536,0.293
				c-0.146,0.021-0.256-0.052-0.326-0.208c-0.146-0.318-0.091-0.772,0.122-1.331c0.24-0.631,0.612-1.133,1.121-1.597
				c0.179-0.162,0.324-0.271,0.442-0.32c0.12-0.051,0.205-0.041,0.255,0.028c0.053,0.072,0.053,0.2-0.009,0.38
				c-0.061,0.183-0.208,0.458-0.46,0.82c-0.127,0.18-0.771,0.706-0.886,1.108c-0.016,0.052,0.035,0.177,0.071,0.244
				c0.05,0.097,0.119,0.138,0.205,0.121c0.084-0.017,0.188-0.078,0.311-0.186c0.115-0.104,0.233-0.232,0.352-0.388
				C56.309,45.1,56.522,44.773,56.775,44.336z M55.19,45.346c0.059,0.019,0.666-0.848,0.811-1.14c0.1-0.2,0.124-0.334,0.079-0.403
				c-0.034-0.049-0.09-0.061-0.167-0.039s-0.161,0.074-0.254,0.154c-0.096,0.083-0.179,0.18-0.249,0.292
				c-0.098,0.148-0.163,0.305-0.193,0.47C55.17,44.923,55.19,45.346,55.19,45.346z"/>
			<path fill="#F8F853" stroke="#FCCC12" stroke-width="0.1427" stroke-miterlimit="10" d="M58.397,43.286
				c-0.206,0.265-0.313,0.391-0.53,0.639c-0.033-0.292-0.052-0.437-0.091-0.724c-0.05-0.354-0.108-0.679-0.181-0.969
				c-0.019-0.069-0.032-0.111-0.043-0.123c-0.021-0.024-0.055-0.008-0.102,0.053c-0.032,0.041-0.075,0.114-0.125,0.221
				c-0.053,0.105-0.136,0.309-0.258,0.608c-0.06,0.026-0.091,0.038-0.152,0.063c0.141-0.359,0.292-0.695,0.455-1.007
				c0.163-0.313,0.29-0.547,0.393-0.693c0.036-0.051,0.069-0.087,0.099-0.111c0.027-0.021,0.046-0.026,0.058-0.012
				c0.013,0.014,0.029,0.065,0.054,0.161c0.044,0.185,0.065,0.275,0.106,0.459c0.068-0.454,0.172-0.93,0.3-1.425
				c0.063-0.239,0.126-0.42,0.196-0.55c0.05-0.093,0.102-0.165,0.152-0.211c0.052-0.046,0.091-0.058,0.115-0.034
				c0.024,0.024,0.029,0.076,0.014,0.157c-0.014,0.078-0.073,0.257-0.188,0.526c-0.107,0.254-0.193,0.467-0.25,0.643
				c-0.057,0.175-0.108,0.38-0.156,0.618c-0.048,0.235-0.075,0.413-0.074,0.531c0,0.119,0.038,0.344,0.108,0.677
				C58.339,42.986,58.358,43.085,58.397,43.286z"/>
			<path fill="#F8F853" stroke="#FCCC12" stroke-width="0.1427" stroke-miterlimit="10" d="M59.019,38.532
				c0.102-0.348,0.148-0.523,0.23-0.88c0.109,0.28,0.163,0.422,0.266,0.707c0.169-0.431,0.246-0.653,0.383-1.104
				c0.031,0.065,0.047,0.099,0.078,0.165c-0.142,0.454-0.219,0.678-0.392,1.11c0.122,0.346,0.18,0.52,0.293,0.872
				c0.083,0.274,0.148,0.438,0.205,0.488c0.025,0.023,0.053,0.019,0.082-0.013s0.06-0.084,0.091-0.155
				c0.047-0.112,0.102-0.301,0.156-0.564c0.072-0.348,0.122-0.688,0.154-1.021c0.056-0.063,0.083-0.098,0.136-0.164
				c-0.095,0.961-0.225,1.581-0.302,1.878c-0.081,0.298-0.162,0.525-0.237,0.685c-0.062,0.13-0.127,0.222-0.188,0.271
				c-0.063,0.051-0.122,0.046-0.181-0.01c-0.066-0.063-0.136-0.229-0.211-0.49c-0.12-0.418-0.184-0.624-0.316-1.036
				c-0.148,0.328-0.228,0.487-0.395,0.799c-0.021-0.074-0.032-0.111-0.053-0.186c0.164-0.31,0.242-0.469,0.39-0.795
				C59.134,38.863,59.096,38.753,59.019,38.532z"/>
		</g>
	</g>
</g>
</svg>
