<?xml version="1.0" encoding="utf-8"?>
<!-- Generator: Adobe Illustrator 16.0.0, SVG Export Plug-In . SVG Version: 6.00 Build 0)  -->
<!DOCTYPE svg PUBLIC "-//W3C//DTD SVG 1.1//EN" "http://www.w3.org/Graphics/SVG/1.1/DTD/svg11.dtd">
<svg version="1.1" id="Calque_1" xmlns="http://www.w3.org/2000/svg" xmlns:xlink="http://www.w3.org/1999/xlink" x="0px" y="0px"
	 width="205px" height="205px" viewBox="0 0 205 205" enable-background="new 0 0 205 205" xml:space="preserve">
<g>
	<g>
		<g>
			
				<linearGradient id="SVGID_1_" gradientUnits="userSpaceOnUse" x1="119.0332" y1="-999.6602" x2="122.7949" y2="-999.6602" gradientTransform="matrix(1 0 0 -1 3.6196 -912.3613)">
				<stop  offset="0" style="stop-color:#F7F8A6"/>
				<stop  offset="0.073" style="stop-color:#F7CA33"/>
				<stop  offset="0.0965" style="stop-color:#F7CD3B"/>
				<stop  offset="0.1335" style="stop-color:#F7D751"/>
				<stop  offset="0.1793" style="stop-color:#F7E676"/>
				<stop  offset="0.2247" style="stop-color:#F7F8A6"/>
				<stop  offset="0.3202" style="stop-color:#F6D868"/>
				<stop  offset="0.4045" style="stop-color:#CFAE41"/>
				<stop  offset="0.4647" style="stop-color:#D8B43E"/>
				<stop  offset="0.5573" style="stop-color:#F2C635"/>
				<stop  offset="0.573" style="stop-color:#F7CA33"/>
				<stop  offset="0.9157" style="stop-color:#DEB430"/>
				<stop  offset="1" style="stop-color:#F7CA33"/>
			</linearGradient>
			<polyline fill="none" stroke="url(#SVGID_1_)" stroke-width="0.3725" stroke-miterlimit="10" points="122.652,90.616 
				126.18,90.613 124.619,83.838 			"/>
			
				<linearGradient id="SVGID_2_" gradientUnits="userSpaceOnUse" x1="111.5986" y1="-973.6201" x2="120.6982" y2="-973.6201" gradientTransform="matrix(1 0 0 -1 3.6196 -912.3613)">
				<stop  offset="0" style="stop-color:#F7F8A6"/>
				<stop  offset="0.073" style="stop-color:#F7CA33"/>
				<stop  offset="0.0965" style="stop-color:#F7CD3B"/>
				<stop  offset="0.1335" style="stop-color:#F7D751"/>
				<stop  offset="0.1793" style="stop-color:#F7E676"/>
				<stop  offset="0.2247" style="stop-color:#F7F8A6"/>
				<stop  offset="0.3202" style="stop-color:#F6D868"/>
				<stop  offset="0.4045" style="stop-color:#CFAE41"/>
				<stop  offset="0.4647" style="stop-color:#D8B43E"/>
				<stop  offset="0.5573" style="stop-color:#F2C635"/>
				<stop  offset="0.573" style="stop-color:#F7CA33"/>
				<stop  offset="0.9157" style="stop-color:#DEB430"/>
				<stop  offset="1" style="stop-color:#F7CA33"/>
			</linearGradient>
			<polyline fill="none" stroke="url(#SVGID_2_)" stroke-width="0.3725" stroke-miterlimit="10" points="124.135,81.444 
				116.168,42.176 115.402,48.117 			"/>
		</g>
		
			<linearGradient id="SVGID_3_" gradientUnits="userSpaceOnUse" x1="117.4336" y1="-993.5454" x2="117.4336" y2="-993.5454" gradientTransform="matrix(1 0 0 -1 3.6196 -912.3613)">
			<stop  offset="0" style="stop-color:#F7F8A6"/>
			<stop  offset="0.073" style="stop-color:#F7CA33"/>
			<stop  offset="0.0965" style="stop-color:#F7CD3B"/>
			<stop  offset="0.1335" style="stop-color:#F7D751"/>
			<stop  offset="0.1793" style="stop-color:#F7E676"/>
			<stop  offset="0.2247" style="stop-color:#F7F8A6"/>
			<stop  offset="0.3202" style="stop-color:#F6D868"/>
			<stop  offset="0.4045" style="stop-color:#CFAE41"/>
			<stop  offset="0.4647" style="stop-color:#D8B43E"/>
			<stop  offset="0.5573" style="stop-color:#F2C635"/>
			<stop  offset="0.573" style="stop-color:#F7CA33"/>
			<stop  offset="0.9157" style="stop-color:#DEB430"/>
			<stop  offset="1" style="stop-color:#F7CA33"/>
		</linearGradient>
		<path fill="url(#SVGID_3_)" d="M121.053,81.184"/>
		
			<linearGradient id="SVGID_4_" gradientUnits="userSpaceOnUse" x1="117.873" y1="-995.9014" x2="117.873" y2="-995.9014" gradientTransform="matrix(1 0 0 -1 3.6196 -912.3613)">
			<stop  offset="0" style="stop-color:#F7F8A6"/>
			<stop  offset="0.073" style="stop-color:#F7CA33"/>
			<stop  offset="0.0965" style="stop-color:#F7CD3B"/>
			<stop  offset="0.1335" style="stop-color:#F7D751"/>
			<stop  offset="0.1793" style="stop-color:#F7E676"/>
			<stop  offset="0.2247" style="stop-color:#F7F8A6"/>
			<stop  offset="0.3202" style="stop-color:#F6D868"/>
			<stop  offset="0.4045" style="stop-color:#CFAE41"/>
			<stop  offset="0.4647" style="stop-color:#D8B43E"/>
			<stop  offset="0.5573" style="stop-color:#F2C635"/>
			<stop  offset="0.573" style="stop-color:#F7CA33"/>
			<stop  offset="0.9157" style="stop-color:#DEB430"/>
			<stop  offset="1" style="stop-color:#F7CA33"/>
		</linearGradient>
		<path fill="url(#SVGID_4_)" d="M121.492,83.54"/>
		
			<linearGradient id="SVGID_5_" gradientUnits="userSpaceOnUse" x1="105.0977" y1="-976.3652" x2="118.0313" y2="-976.3652" gradientTransform="matrix(1 0 0 -1 3.6196 -912.3613)">
			<stop  offset="0" style="stop-color:#F7F8A6"/>
			<stop  offset="0.073" style="stop-color:#F7CA33"/>
			<stop  offset="0.0965" style="stop-color:#F7CD3B"/>
			<stop  offset="0.1335" style="stop-color:#F7D751"/>
			<stop  offset="0.1793" style="stop-color:#F7E676"/>
			<stop  offset="0.2247" style="stop-color:#F7F8A6"/>
			<stop  offset="0.3202" style="stop-color:#F6D868"/>
			<stop  offset="0.4045" style="stop-color:#CFAE41"/>
			<stop  offset="0.4647" style="stop-color:#D8B43E"/>
			<stop  offset="0.5573" style="stop-color:#F2C635"/>
			<stop  offset="0.573" style="stop-color:#F7CA33"/>
			<stop  offset="0.9157" style="stop-color:#DEB430"/>
			<stop  offset="1" style="stop-color:#F7CA33"/>
		</linearGradient>
		<polygon fill="url(#SVGID_5_)" points="121.65,81.184 115.506,46.796 108.717,81.212 		"/>
		
			<linearGradient id="SVGID_6_" gradientUnits="userSpaceOnUse" x1="75.6875" y1="-1016.4971" x2="110.6973" y2="-1016.4971" gradientTransform="matrix(1 0 0 -1 3.6196 -912.3613)">
			<stop  offset="0" style="stop-color:#F7F8A6"/>
			<stop  offset="0.073" style="stop-color:#F7CA33"/>
			<stop  offset="0.0965" style="stop-color:#F7CD3B"/>
			<stop  offset="0.1335" style="stop-color:#F7D751"/>
			<stop  offset="0.1793" style="stop-color:#F7E676"/>
			<stop  offset="0.2247" style="stop-color:#F7F8A6"/>
			<stop  offset="0.3202" style="stop-color:#F6D868"/>
			<stop  offset="0.4045" style="stop-color:#CFAE41"/>
			<stop  offset="0.4647" style="stop-color:#D8B43E"/>
			<stop  offset="0.5573" style="stop-color:#F2C635"/>
			<stop  offset="0.573" style="stop-color:#F7CA33"/>
			<stop  offset="0.9157" style="stop-color:#DEB430"/>
			<stop  offset="1" style="stop-color:#F7CA33"/>
		</linearGradient>
		<polygon fill="url(#SVGID_6_)" points="114.316,45.447 79.307,162.824 90.819,162.824 		"/>
		
			<linearGradient id="SVGID_7_" gradientUnits="userSpaceOnUse" x1="81.5835" y1="-990.8384" x2="104.6504" y2="-990.8384" gradientTransform="matrix(1 0 0 -1 3.6196 -912.3613)">
			<stop  offset="0" style="stop-color:#F7F8A6"/>
			<stop  offset="0.073" style="stop-color:#F7CA33"/>
			<stop  offset="0.0965" style="stop-color:#F7CD3B"/>
			<stop  offset="0.1335" style="stop-color:#F7D751"/>
			<stop  offset="0.1793" style="stop-color:#F7E676"/>
			<stop  offset="0.2247" style="stop-color:#F7F8A6"/>
			<stop  offset="0.3202" style="stop-color:#F6D868"/>
			<stop  offset="0.4045" style="stop-color:#CFAE41"/>
			<stop  offset="0.4647" style="stop-color:#D8B43E"/>
			<stop  offset="0.5573" style="stop-color:#F2C635"/>
			<stop  offset="0.573" style="stop-color:#F7CA33"/>
			<stop  offset="0.9157" style="stop-color:#DEB430"/>
			<stop  offset="1" style="stop-color:#F7CA33"/>
		</linearGradient>
		<path fill="url(#SVGID_7_)" d="M93.471,82.638c-2.158,0.223-3.061,0.326-5.091,0.902l-3.177,10.587
			c4.246-2.013,8.58-3.035,14.762-3.457l2.722-8.596c-4.083,0-7.095-3.442-7.095-7.313c0-3.87,3.313-7.003,7.394-7.003
			c1.021,0,2.894,0.193,3.78,0.547l1.504-4.555c-1.438-0.595-3.615-0.923-5.274-0.923c-6.636,0-12.318,5.265-12.318,11.76
			c0,2.905,1.68,5.875,3.468,7.929L93.471,82.638z"/>
		
			<linearGradient id="SVGID_8_" gradientUnits="userSpaceOnUse" x1="57.0205" y1="-1030.5151" x2="83.9556" y2="-1030.5151" gradientTransform="matrix(1 0 0 -1 3.6196 -912.3613)">
			<stop  offset="0" style="stop-color:#F7F8A6"/>
			<stop  offset="0.073" style="stop-color:#F7CA33"/>
			<stop  offset="0.0965" style="stop-color:#F7CD3B"/>
			<stop  offset="0.1335" style="stop-color:#F7D751"/>
			<stop  offset="0.1793" style="stop-color:#F7E676"/>
			<stop  offset="0.2247" style="stop-color:#F7F8A6"/>
			<stop  offset="0.3202" style="stop-color:#F6D868"/>
			<stop  offset="0.4045" style="stop-color:#CFAE41"/>
			<stop  offset="0.4647" style="stop-color:#D8B43E"/>
			<stop  offset="0.5573" style="stop-color:#F2C635"/>
			<stop  offset="0.573" style="stop-color:#F7CA33"/>
			<stop  offset="0.9157" style="stop-color:#DEB430"/>
			<stop  offset="1" style="stop-color:#F7CA33"/>
		</linearGradient>
		<path fill="url(#SVGID_8_)" d="M81.423,152.68c-12.315-6.098-20.783-18.789-20.783-33.469c0-16.681,11.838-30.8,26.935-35.583
			l-3.47,11.15c-8.779,5.07-14.622,14.083-14.622,24.359c0,10.287,5.854,19.311,14.653,24.375L81.423,152.68z"/>
		
			<linearGradient id="SVGID_9_" gradientUnits="userSpaceOnUse" x1="103.3418" y1="-999.4609" x2="120.1582" y2="-999.4609" gradientTransform="matrix(1 0 0 -1 3.6196 -912.3613)">
			<stop  offset="0" style="stop-color:#F7F8A6"/>
			<stop  offset="0.073" style="stop-color:#F7CA33"/>
			<stop  offset="0.0965" style="stop-color:#F7CD3B"/>
			<stop  offset="0.1335" style="stop-color:#F7D751"/>
			<stop  offset="0.1793" style="stop-color:#F7E676"/>
			<stop  offset="0.2247" style="stop-color:#F7F8A6"/>
			<stop  offset="0.3202" style="stop-color:#F6D868"/>
			<stop  offset="0.4045" style="stop-color:#CFAE41"/>
			<stop  offset="0.4647" style="stop-color:#D8B43E"/>
			<stop  offset="0.5573" style="stop-color:#F2C635"/>
			<stop  offset="0.573" style="stop-color:#F7CA33"/>
			<stop  offset="0.9157" style="stop-color:#DEB430"/>
			<stop  offset="1" style="stop-color:#F7CA33"/>
		</linearGradient>
		<polyline fill="url(#SVGID_9_)" points="108.143,83.583 106.962,90.616 123.777,90.613 122.355,83.729 		"/>
	</g>
	<g>
		
			<linearGradient id="SVGID_10_" gradientUnits="userSpaceOnUse" x1="122.9648" y1="-999.4795" x2="124.916" y2="-999.4795" gradientTransform="matrix(1 0 0 -1 3.6196 -912.3613)">
			<stop  offset="0" style="stop-color:#F7F8A6"/>
			<stop  offset="0.073" style="stop-color:#F7CA33"/>
			<stop  offset="0.0965" style="stop-color:#F7CD3B"/>
			<stop  offset="0.1335" style="stop-color:#F7D751"/>
			<stop  offset="0.1793" style="stop-color:#F7E676"/>
			<stop  offset="0.2247" style="stop-color:#F7F8A6"/>
			<stop  offset="0.3202" style="stop-color:#F6D868"/>
			<stop  offset="0.4045" style="stop-color:#CFAE41"/>
			<stop  offset="0.4647" style="stop-color:#D8B43E"/>
			<stop  offset="0.5573" style="stop-color:#F2C635"/>
			<stop  offset="0.573" style="stop-color:#F7CA33"/>
			<stop  offset="0.9157" style="stop-color:#DEB430"/>
			<stop  offset="1" style="stop-color:#F7CA33"/>
		</linearGradient>
		<polyline fill="url(#SVGID_10_)" stroke="#FCCC12" stroke-width="0.3725" stroke-miterlimit="10" points="126.605,83.664 
			126.584,90.572 128.536,90.572 128.536,83.664 		"/>
		<g>
			
				<linearGradient id="SVGID_11_" gradientUnits="userSpaceOnUse" x1="122.9629" y1="-991.5166" x2="126.5859" y2="-991.5166" gradientTransform="matrix(1 0 0 -1 3.6196 -912.3613)">
				<stop  offset="0" style="stop-color:#F7F8A6"/>
				<stop  offset="0.073" style="stop-color:#F7CA33"/>
				<stop  offset="0.0965" style="stop-color:#F7CD3B"/>
				<stop  offset="0.1335" style="stop-color:#F7D751"/>
				<stop  offset="0.1793" style="stop-color:#F7E676"/>
				<stop  offset="0.2247" style="stop-color:#F7F8A6"/>
				<stop  offset="0.3202" style="stop-color:#F6D868"/>
				<stop  offset="0.4045" style="stop-color:#CFAE41"/>
				<stop  offset="0.4647" style="stop-color:#D8B43E"/>
				<stop  offset="0.5573" style="stop-color:#F2C635"/>
				<stop  offset="0.573" style="stop-color:#F7CA33"/>
				<stop  offset="0.9157" style="stop-color:#DEB430"/>
				<stop  offset="1" style="stop-color:#F7CA33"/>
			</linearGradient>
			<path fill="url(#SVGID_11_)" stroke="#FCCC12" stroke-width="0.3725" stroke-miterlimit="10" d="M128.578,81.438
				c0,0-0.182-1.327,0.211-1.948c0.32-0.506,1.416-0.073,1.416-0.073v-2.344c0,0-0.865-0.323-1.648-0.148
				c-0.813,0.184-1.5,0.957-1.764,1.794c-0.211,0.662-0.211,2.682-0.211,2.682"/>
			
				<linearGradient id="SVGID_12_" gradientUnits="userSpaceOnUse" x1="127.2383" y1="-999.4434" x2="129.1875" y2="-999.4434" gradientTransform="matrix(1 0 0 -1 3.6196 -912.3613)">
				<stop  offset="0" style="stop-color:#F7F8A6"/>
				<stop  offset="0.073" style="stop-color:#F7CA33"/>
				<stop  offset="0.0965" style="stop-color:#F7CD3B"/>
				<stop  offset="0.1335" style="stop-color:#F7D751"/>
				<stop  offset="0.1793" style="stop-color:#F7E676"/>
				<stop  offset="0.2247" style="stop-color:#F7F8A6"/>
				<stop  offset="0.3202" style="stop-color:#F6D868"/>
				<stop  offset="0.4045" style="stop-color:#CFAE41"/>
				<stop  offset="0.4647" style="stop-color:#D8B43E"/>
				<stop  offset="0.5573" style="stop-color:#F2C635"/>
				<stop  offset="0.573" style="stop-color:#F7CA33"/>
				<stop  offset="0.9157" style="stop-color:#DEB430"/>
				<stop  offset="1" style="stop-color:#F7CA33"/>
			</linearGradient>
			
				<rect x="130.857" y="83.592" fill="url(#SVGID_12_)" stroke="#FCCC12" stroke-width="0.3725" stroke-miterlimit="10" width="1.949" height="6.98"/>
			
				<linearGradient id="SVGID_13_" gradientUnits="userSpaceOnUse" x1="132.8027" y1="-998.2305" x2="136.7715" y2="-998.2305" gradientTransform="matrix(1 0 0 -1 3.6196 -912.3613)">
				<stop  offset="0" style="stop-color:#F7F8A6"/>
				<stop  offset="0.073" style="stop-color:#F7CA33"/>
				<stop  offset="0.0965" style="stop-color:#F7CD3B"/>
				<stop  offset="0.1335" style="stop-color:#F7D751"/>
				<stop  offset="0.1793" style="stop-color:#F7E676"/>
				<stop  offset="0.2247" style="stop-color:#F7F8A6"/>
				<stop  offset="0.3202" style="stop-color:#F6D868"/>
				<stop  offset="0.4045" style="stop-color:#CFAE41"/>
				<stop  offset="0.4647" style="stop-color:#D8B43E"/>
				<stop  offset="0.5573" style="stop-color:#F2C635"/>
				<stop  offset="0.573" style="stop-color:#F7CA33"/>
				<stop  offset="0.9157" style="stop-color:#DEB430"/>
				<stop  offset="1" style="stop-color:#F7CA33"/>
			</linearGradient>
			<path fill="url(#SVGID_13_)" stroke="#FCCC12" stroke-width="0.3725" stroke-miterlimit="10" d="M136.425,82.856
				c0,0,0.333-1.317,1.649-1.685c0.533-0.146,2.074,0.367,2.23,1.685c0.157,1.344,0.053,7.735,0.053,7.735l-1.985-0.018
				c0,0-0.003-4.588-0.036-5.59c-0.053-2.022-1.201-1.531-1.436-1.253c-0.383,0.452-0.478,1.096-0.478,1.096L136.425,82.856
				L136.425,82.856z"/>
			
				<linearGradient id="SVGID_14_" gradientUnits="userSpaceOnUse" x1="130.8242" y1="-998.417" x2="132.7754" y2="-998.417" gradientTransform="matrix(1 0 0 -1 3.6196 -912.3613)">
				<stop  offset="0" style="stop-color:#F7F8A6"/>
				<stop  offset="0.073" style="stop-color:#F7CA33"/>
				<stop  offset="0.0965" style="stop-color:#F7CD3B"/>
				<stop  offset="0.1335" style="stop-color:#F7D751"/>
				<stop  offset="0.1793" style="stop-color:#F7E676"/>
				<stop  offset="0.2247" style="stop-color:#F7F8A6"/>
				<stop  offset="0.3202" style="stop-color:#F6D868"/>
				<stop  offset="0.4045" style="stop-color:#CFAE41"/>
				<stop  offset="0.4647" style="stop-color:#D8B43E"/>
				<stop  offset="0.5573" style="stop-color:#F2C635"/>
				<stop  offset="0.573" style="stop-color:#F7CA33"/>
				<stop  offset="0.9157" style="stop-color:#DEB430"/>
				<stop  offset="1" style="stop-color:#F7CA33"/>
			</linearGradient>
			
				<rect x="134.443" y="81.539" fill="url(#SVGID_14_)" stroke="#FCCC12" stroke-width="0.3725" stroke-miterlimit="10" width="1.951" height="9.034"/>
			
				<linearGradient id="SVGID_15_" gradientUnits="userSpaceOnUse" x1="136.7715" y1="-998.2305" x2="140.7402" y2="-998.2305" gradientTransform="matrix(1 0 0 -1 3.6196 -912.3613)">
				<stop  offset="0" style="stop-color:#F7F8A6"/>
				<stop  offset="0.073" style="stop-color:#F7CA33"/>
				<stop  offset="0.0965" style="stop-color:#F7CD3B"/>
				<stop  offset="0.1335" style="stop-color:#F7D751"/>
				<stop  offset="0.1793" style="stop-color:#F7E676"/>
				<stop  offset="0.2247" style="stop-color:#F7F8A6"/>
				<stop  offset="0.3202" style="stop-color:#F6D868"/>
				<stop  offset="0.4045" style="stop-color:#CFAE41"/>
				<stop  offset="0.4647" style="stop-color:#D8B43E"/>
				<stop  offset="0.5573" style="stop-color:#F2C635"/>
				<stop  offset="0.573" style="stop-color:#F7CA33"/>
				<stop  offset="0.9157" style="stop-color:#DEB430"/>
				<stop  offset="1" style="stop-color:#F7CA33"/>
			</linearGradient>
			<path fill="url(#SVGID_15_)" stroke="#FCCC12" stroke-width="0.3725" stroke-miterlimit="10" d="M140.393,82.856
				c0,0,0.332-1.317,1.648-1.685c0.531-0.146,2.072,0.367,2.229,1.685c0.16,1.344,0.057,7.735,0.057,7.735l-1.988-0.018
				c0,0-0.006-4.588-0.033-5.59c-0.057-2.022-1.201-1.531-1.438-1.253c-0.384,0.452-0.476,1.096-0.476,1.096L140.393,82.856
				L140.393,82.856z"/>
			
				<linearGradient id="SVGID_16_" gradientUnits="userSpaceOnUse" x1="127.2383" y1="-992.2764" x2="129.4688" y2="-992.2764" gradientTransform="matrix(1 0 0 -1 3.6196 -912.3613)">
				<stop  offset="0" style="stop-color:#F7F8A6"/>
				<stop  offset="0.073" style="stop-color:#F7CA33"/>
				<stop  offset="0.0965" style="stop-color:#F7CD3B"/>
				<stop  offset="0.1335" style="stop-color:#F7D751"/>
				<stop  offset="0.1793" style="stop-color:#F7E676"/>
				<stop  offset="0.2247" style="stop-color:#F7F8A6"/>
				<stop  offset="0.3202" style="stop-color:#F6D868"/>
				<stop  offset="0.4045" style="stop-color:#CFAE41"/>
				<stop  offset="0.4647" style="stop-color:#D8B43E"/>
				<stop  offset="0.5573" style="stop-color:#F2C635"/>
				<stop  offset="0.573" style="stop-color:#F7CA33"/>
				<stop  offset="0.9157" style="stop-color:#DEB430"/>
				<stop  offset="1" style="stop-color:#F7CA33"/>
			</linearGradient>
			
				<ellipse fill="url(#SVGID_16_)" stroke="#FCCC12" stroke-width="0.3725" stroke-miterlimit="10" cx="131.973" cy="79.915" rx="1.115" ry="1.502"/>
		</g>
	</g>
	<g>
		<g enable-background="new    ">
			<path fill="#F8F853" stroke="#FCCC12" stroke-width="0.3725" stroke-miterlimit="10" d="M94.947,148.553
				c-0.216-0.219-0.325-0.332-0.54-0.549c1.024-0.381,1.965-0.525,2.781-0.557c0.546-0.021,0.97,0.012,1.255,0.084
				c0.42,0.105,0.777,0.298,1.076,0.574c0.427,0.393,1.389,2.338,1.524,2.362c0.289,0.06,2.186-1.386,3.127-1.563
				c0.939-0.18,1.73-0.225,2.391-0.184c0.338,0.022,0.615,0.075,0.842,0.155c0.224,0.08,0.355,0.172,0.39,0.288
				c0.041,0.132-0.063,0.24-0.324,0.327c-0.184,0.062-0.729,0.104-1.655,0.063c-0.76-0.035-1.42-0.004-1.959,0.16
				c-0.862,0.262-1.668,0.734-2.389,1.545c0.666,1.223,1.004,1.84,1.669,2.984c0.72,1.249,1.378,2.043,1.986,2.477
				c0.606,0.434,1.288,0.654,2.044,0.715c0.432,0.029,0.886-0.024,1.355-0.151c0.674-0.188,1.104-0.487,1.301-0.908
				c0.13-0.274,0.408-0.478,0.83-0.599c0.201-0.057,0.388-0.069,0.562-0.045c0.168,0.031,0.271,0.094,0.306,0.197
				c0.065,0.205-0.146,0.463-0.656,0.801c-0.51,0.33-1.219,0.641-2.135,0.91c-1.013,0.293-2.029,0.441-3.051,0.377
				c-1.018-0.063-1.963-0.397-2.831-1.121c-0.868-0.723-2.657-4.242-2.807-4.266c-0.045-0.009-0.477,0.482-0.875,0.92
				c-1.137,1.243-2.065,2.117-2.75,2.473c-0.686,0.358-1.37,0.508-2.044,0.438c-0.474-0.048-0.875-0.188-1.211-0.429
				c-0.337-0.244-0.522-0.516-0.564-0.799c-0.033-0.234,0.033-0.424,0.206-0.568c0.174-0.145,0.393-0.191,0.657-0.152
				c0.274,0.041,0.584,0.223,0.914,0.539c0.284,0.273,0.542,0.422,0.769,0.442c0.15,0.015,0.317-0.005,0.487-0.065
				c0.248-0.086,0.574-0.309,0.97-0.639c0.563-0.469,0.996-0.873,1.282-1.211c0.668-0.791,1-1.173,1.676-1.865
				c-0.426-0.834-0.641-1.264-1.059-2.081c-0.273-0.554-0.515-0.917-0.721-1.097c-0.208-0.182-0.423-0.297-0.642-0.35
				c-0.164-0.035-0.389-0.035-0.661-0.006C95.884,148.246,95.372,148.367,94.947,148.553z"/>
			<path fill="#F8F853" stroke="#FCCC12" stroke-width="0.3725" stroke-miterlimit="10" d="M107.766,150.695
				c-0.271-0.105-0.408-0.161-0.68-0.277c0.798-0.523,1.6-0.879,2.387-1.184c0.787-0.303,1.438-0.566,2.014-0.732
				c0.218-0.063,0.396-0.091,0.541-0.084c0.146,0.01,0.234,0.064,0.271,0.158c0.043,0.113,0.059,0.24,0.049,0.383
				c-0.012,0.143-0.215,1.059-0.215,1.059c0.057,0.029,1.879-1.772,2.291-2.094c0.697-0.546,1.357-0.971,1.994-1.27
				c0.416-0.197,0.807-0.285,1.178-0.26c0.369,0.024,0.641,0.199,0.819,0.551c0.444,0.877,0.261,2.117-0.673,3.684
				c-0.938,1.566-2.289,2.768-4.004,3.352c-0.674,0.231-1.381,0.353-2.129,0.384c-0.226,1.015-0.342,1.53-0.605,2.462
				c-0.042,0.143-0.051,0.247-0.025,0.318c0.047,0.14,0.224,0.188,0.527,0.15c0.469-0.045,1.408-0.229,2.778-0.617
				c-0.032,0.131-0.05,0.193-0.081,0.32c-1.6,0.452-2.902,0.814-3.863,1.113c-0.99,0.313-2.289,0.746-3.924,1.256
				c0.055-0.127,0.081-0.194,0.135-0.33c0.814-0.262,1.385-0.512,1.713-0.75c0.326-0.234,0.551-0.555,0.662-0.98
				c0.574-2.219,0.803-3.643,1.229-5.898c0.203-1.053,0.273-1.572,0.24-1.669c-0.037-0.109-0.168-0.149-0.404-0.111
				C109.572,149.688,108.861,150.033,107.766,150.695z M111.727,153.535c0.861,0.143,1.676,0.072,2.441-0.211
				c1.111-0.408,1.916-1.242,2.4-2.391c0.482-1.15,0.547-2.078,0.238-2.762c-0.098-0.221-0.279-0.331-0.543-0.347
				c-0.263-0.015-0.574,0.06-0.938,0.215c-0.407,0.176-0.823,0.448-1.268,0.832c-0.686,0.599-1.211,1.112-1.537,1.558
				c-0.235,0.317-0.403,0.797-0.506,1.438C111.908,152.531,111.85,152.869,111.727,153.535z"/>
			<path fill="#F8F853" stroke="#FCCC12" stroke-width="0.3725" stroke-miterlimit="10" d="M126.549,143.889
				c0.196-0.051,0.299-0.08,0.498-0.134c-1.218,2.229-2.643,3.997-4.068,5.071c-0.578,0.438-1.078,0.676-1.479,0.721
				c-0.404,0.047-0.708-0.127-0.906-0.514c-0.4-0.777-0.25-1.896,0.34-3.273c0.664-1.552,1.695-2.787,3.103-3.93
				c0.493-0.4,0.896-0.664,1.226-0.786c0.334-0.125,0.564-0.103,0.704,0.067c0.146,0.179,0.144,0.492-0.026,0.938
				c-0.164,0.447-0.573,1.121-1.272,2.017c-0.351,0.442-2.13,1.738-2.45,2.729c-0.041,0.128,0.102,0.434,0.199,0.598
				c0.141,0.241,0.33,0.34,0.564,0.301c0.233-0.041,0.523-0.195,0.86-0.459c0.32-0.254,0.646-0.571,0.976-0.955
				C125.253,145.768,125.85,144.965,126.549,143.889z M122.165,146.373c0.157,0.044,1.841-2.086,2.241-2.805
				c0.273-0.492,0.342-0.822,0.217-0.99c-0.094-0.124-0.246-0.152-0.461-0.1c-0.211,0.055-0.446,0.182-0.702,0.381
				c-0.265,0.205-0.493,0.445-0.69,0.717c-0.267,0.367-0.449,0.75-0.535,1.16C122.109,145.332,122.165,146.373,122.165,146.373z"/>
			<path fill="#F8F853" stroke="#FCCC12" stroke-width="0.3725" stroke-miterlimit="10" d="M131.034,141.309
				c-0.569,0.646-0.861,0.957-1.468,1.567c-0.09-0.718-0.142-1.071-0.248-1.782c-0.137-0.869-0.301-1.666-0.502-2.379
				c-0.049-0.174-0.092-0.277-0.117-0.307c-0.059-0.061-0.15-0.02-0.281,0.129c-0.091,0.102-0.207,0.283-0.348,0.543
				c-0.145,0.261-0.371,0.764-0.711,1.499c-0.168,0.063-0.252,0.095-0.422,0.153c0.391-0.883,0.809-1.709,1.258-2.478
				c0.449-0.771,0.802-1.351,1.088-1.706c0.102-0.128,0.191-0.214,0.27-0.273c0.077-0.051,0.131-0.064,0.164-0.03
				s0.08,0.164,0.146,0.396c0.123,0.455,0.18,0.68,0.291,1.131c0.193-1.119,0.479-2.287,0.832-3.508
				c0.171-0.586,0.348-1.033,0.543-1.35c0.141-0.23,0.281-0.406,0.423-0.52c0.142-0.117,0.249-0.144,0.317-0.086
				c0.067,0.059,0.082,0.188,0.041,0.385c-0.041,0.195-0.203,0.635-0.521,1.295c-0.301,0.627-0.535,1.152-0.691,1.586
				c-0.156,0.432-0.3,0.934-0.433,1.518c-0.132,0.582-0.208,1.018-0.205,1.309c0,0.293,0.108,0.849,0.3,1.666
				C130.873,140.566,130.928,140.813,131.034,141.309z"/>
			<path fill="#F8F853" stroke="#FCCC12" stroke-width="0.3725" stroke-miterlimit="10" d="M132.754,129.605
				c0.279-0.854,0.409-1.287,0.637-2.162c0.305,0.688,0.45,1.035,0.736,1.738c0.466-1.062,0.678-1.605,1.063-2.72
				c0.084,0.162,0.129,0.244,0.213,0.408c-0.391,1.116-0.604,1.666-1.082,2.729c0.336,0.852,0.5,1.277,0.813,2.146
				c0.224,0.673,0.408,1.077,0.563,1.202c0.072,0.057,0.146,0.045,0.227-0.031s0.167-0.207,0.252-0.385
				c0.131-0.271,0.281-0.736,0.436-1.389c0.195-0.854,0.336-1.692,0.425-2.512c0.151-0.156,0.228-0.24,0.377-0.404
				c-0.261,2.364-0.621,3.891-0.838,4.621c-0.22,0.735-0.443,1.295-0.653,1.686c-0.173,0.32-0.352,0.545-0.521,0.666
				c-0.176,0.125-0.34,0.113-0.498-0.023c-0.188-0.158-0.379-0.564-0.584-1.205c-0.332-1.031-0.51-1.539-0.875-2.553
				c-0.414,0.809-0.633,1.199-1.094,1.965c-0.058-0.18-0.088-0.271-0.148-0.453c0.455-0.766,0.673-1.154,1.08-1.959
				C133.074,130.422,132.967,130.15,132.754,129.605z"/>
		</g>
	</g>
</g>
</svg>
